<svg width="329" height="79" viewBox="0 0 329 79" fill="none" xmlns="http://www.w3.org/2000/svg">
<path d="M285.999 0.496853C287.941 -0.230533 290.093 -0.156815 291.981 0.701931C296.504 2.72882 300.877 4.11047 307.214 6.5867C307.343 6.64684 307.557 6.74464 307.89 6.93045C308.271 7.14801 308.73 7.42627 309.321 7.93631C309.824 8.44268 311.537 9.70617 312.031 13.0271C312.278 14.8318 311.729 16.8165 310.971 18.032C310.346 19.055 309.843 19.5305 309.346 19.9783C308.881 20.3883 308.371 20.7166 308.149 20.8474C307.907 20.9921 307.69 21.1058 307.493 21.2019C306.647 21.599 306.362 21.6626 305.993 21.781C305.61 21.8932 305.445 21.9322 305.205 21.989C304.357 22.1812 303.841 22.2566 303.303 22.3435C302.274 22.5033 301.387 22.6211 300.522 22.7439C298.77 22.9877 297.125 23.2314 295.472 23.4978C295.023 23.57 294.574 23.6465 294.126 23.7215C294.547 23.7713 294.967 23.821 295.385 23.866C300.142 24.389 304.206 24.4909 309.586 24.4392C310.732 24.4746 311.335 24.3984 313.632 24.8963C313.955 24.9763 314.328 25.0731 314.902 25.2722C315.488 25.5005 316.148 25.6674 317.71 26.6658C317.907 26.7967 318.115 26.9429 318.334 27.1092C318.59 27.3035 318.862 27.5251 319.149 27.784C319.438 28.0467 319.725 28.3261 320.057 28.6961C320.42 29.1021 320.796 29.5774 321.163 30.1385C322.785 32.1145 323.84 37.6714 322.454 40.7605C321.907 42.3129 321.171 43.4196 320.642 44.1121C320.611 44.1526 320.578 44.1919 320.547 44.2312C320.6 44.2569 320.656 44.2824 320.713 44.3103C321.031 44.4675 321.362 44.6404 321.719 44.8445C321.898 44.9467 322.084 45.0567 322.278 45.1785C322.382 45.2432 322.456 45.2912 322.595 45.3826C322.745 45.4814 322.901 45.5875 323.064 45.7039C323.389 45.937 323.742 46.2098 324.135 46.5525C324.331 46.724 324.538 46.9133 324.754 47.1277C324.862 47.2347 324.972 47.3481 325.085 47.4685C325.183 47.5722 325.426 47.8407 325.605 48.0584C326.36 48.9811 327.276 50.2892 327.917 52.3045C328.557 53.8506 328.812 58.2196 327.431 60.9217C326.842 62.2927 325.883 63.5719 325.326 64.1726C324.781 64.7783 324.248 65.255 323.755 65.6433C322.764 66.417 321.934 66.8583 321.24 67.1863C320.217 67.6567 319.578 67.8436 318.953 68.0193C318.802 68.0606 318.656 68.0978 318.516 68.1316C318.405 68.1583 318.308 68.1808 318.208 68.2029C318.011 68.2466 317.823 68.2843 317.643 68.3181C317.289 68.3848 316.931 68.4403 316.651 68.4783C314.499 68.7461 313.385 68.732 312.052 68.7576C309.565 68.7757 307.359 68.6897 305.16 68.5877C300.776 68.3746 296.576 68.0627 292.37 67.7273C290.272 67.5582 288.178 67.382 286.091 67.2C286.087 67.2225 286.083 67.2459 286.078 67.2683C285.949 67.917 285.671 68.5566 285.241 69.3631C284.815 70.1513 284.271 71.0413 283.794 71.5203C282.12 73.0602 280.955 76.4547 280.832 76.6551C280.83 76.6565 280.827 76.6575 280.825 76.659L281.186 76.658C275.082 77.5843 268.678 77.5362 263.802 76.5418C263.751 76.5317 263.699 76.5216 263.649 76.5115C259.654 75.7131 255.648 75.2807 251.378 75.1072C251.294 75.1037 251.209 75.0998 251.124 75.0965C243.92 74.808 237.197 74.2218 231.595 74.4607C231.473 74.4661 231.351 74.4712 231.232 74.4773C222.965 74.9443 215.353 73.5167 210.302 73.4549C210.152 73.4517 210.002 73.4494 209.854 73.448C204.513 73.3896 199.78 72.7548 195.533 72.2859C191.297 71.8032 187.492 71.4606 183.834 71.4676C183.625 71.4677 183.414 71.4682 183.204 71.4705C174.783 71.5152 167.239 71.5521 159.413 72.0926C159.107 72.1127 158.798 72.1334 158.486 72.1551C145.478 72.9627 133.88 72.8358 122.009 73.5691C121.593 73.592 121.173 73.616 120.748 73.6404C110.13 74.2526 99.9725 74.304 90.339 75.0652C89.8465 75.1034 89.3588 75.1428 88.8674 75.1844C76.5057 76.2206 64.1347 77.1855 51.4924 77.7254C50.8418 77.7523 50.1876 77.7779 49.5392 77.8015C43.4887 78.0105 36.7426 78.6803 28.8654 78.1785C28.0128 78.1179 27.1389 78.0391 26.2355 77.9314C25.9106 77.8924 25.5411 77.8477 25.0783 77.781C24.5667 77.6966 24.1939 77.6788 22.839 77.3357C22.6103 77.2738 22.3407 77.1987 21.9416 77.0633C21.5384 76.9188 21.0516 76.7654 20.0734 76.2576C19.4984 75.9331 18.9859 75.702 17.7629 74.6736C16.9202 73.8285 14.303 71.8804 13.6535 66.6765C13.5359 65.0603 13.6957 63.661 14.0021 62.4646C13.8701 62.4535 13.7368 62.4441 13.6037 62.4324C12.5821 62.2682 11.4913 62.0541 10.3097 61.7215C8.84544 61.2707 7.74495 60.918 5.75309 59.6521C5.07855 59.18 4.30053 58.7066 2.97868 57.2244C2.31752 56.4119 1.39453 55.381 0.552899 52.9334C-0.390451 50.6563 -0.214831 45.6391 1.76872 42.8123C3.61537 39.9607 5.34335 39.0824 6.38005 38.4685C7.50404 37.8698 8.20432 37.6484 8.80876 37.4578C9.97473 37.1138 10.6349 37.0311 11.2277 36.95C11.6503 36.8702 12.0776 36.7913 12.509 36.7107C12.2617 36.6236 12.0003 36.5283 11.717 36.4138C11.4877 36.321 11.2428 36.2155 10.9738 36.0906C10.5636 35.8992 10.0699 35.6536 9.46696 35.281C8.83146 34.8694 8.22646 34.5074 7.09684 33.3972C6.21037 32.4845 5.03278 31.1064 4.20134 28.7478C3.33241 26.4663 3.32752 22.9525 4.29411 20.5691C5.85905 16.6119 8.1726 15.1742 9.45036 14.3338C10.1229 13.9209 10.7645 13.6322 10.924 13.5613C11.188 13.4434 11.4297 13.3448 11.6545 13.2595C12.5425 12.9253 13.2272 12.7561 13.759 12.6345C14.5004 12.469 15.1252 12.3709 15.7502 12.2869C16.3492 12.2073 16.9378 12.1294 17.5158 12.0535C29.4273 10.6146 41.4322 8.62823 54.9211 9.02713C55.5386 9.04208 56.1835 9.0713 56.7668 9.10623C77.7757 11.4691 92.8888 15.3565 109.749 14.3387C109.752 14.3386 109.755 14.3388 109.757 14.3387C130.147 13.2412 151.122 12.1026 171.84 11.5027C172.02 11.4972 172.201 11.4926 172.382 11.4871C191.927 10.8541 211.911 8.9793 232.021 7.2576C242.616 6.35722 253.195 5.4136 264.211 4.89138C264.546 4.8763 264.879 4.86466 265.209 4.85525C270.548 4.70429 275.896 5.12381 281.238 5.62283C281.342 5.26905 281.471 4.92031 281.625 4.58084C282.484 2.69351 284.057 1.22434 285.999 0.496853ZM14.173 60.5125C14.319 60.4909 14.4861 60.4701 14.7336 60.4217C14.735 60.4186 14.737 60.4159 14.7384 60.4129C14.5507 60.4459 14.3618 60.4792 14.173 60.5125Z" fill="white"/>
</svg>
