<svg width="241" height="90" viewBox="0 0 241 90" fill="none" xmlns="http://www.w3.org/2000/svg">
<path d="M81.4093 25.6331C82.3324 25.7644 83.2699 25.5237 84.0155 24.9638C84.7611 24.404 85.2538 23.5708 85.3852 22.6477C85.5165 21.7246 85.2758 20.7872 84.7159 20.0416C84.1561 19.2959 83.323 18.8033 82.3999 18.6719C82.3999 18.6719 82.3999 18.6719 82.3999 18.6719C78.6915 18.015 74.0518 16.945 69.8108 16.3141C69.5781 16.2772 69.3463 16.2412 69.1154 16.2063C69.0775 16.2005 69.0397 16.1948 69.0019 16.1891C59.3886 14.7403 49.4635 14.383 39.8315 15.8196C39.0834 15.9258 38.3448 16.0463 37.6075 16.1825C28.6179 17.7912 19.9924 21.7526 12.7457 26.917C11.9026 27.5012 11.1737 28.2125 10.5831 28.9636C7.82796 32.696 7.63211 36.3812 7.54911 39.7084C7.54598 40.5294 7.69915 41.3129 7.93109 41.9908C8.52978 43.6856 9.44672 44.7793 10.3668 45.6827C10.7512 46.0521 11.1623 46.3925 11.6021 46.7013C17.6622 50.5215 23.1586 48.2891 27.1311 47.4932C27.6828 47.3599 28.2309 47.2305 28.7752 47.1066C29.8789 46.8562 30.9764 46.6217 31.9971 46.4531C32.4963 46.3707 32.9958 46.3053 33.3489 46.2844C33.5183 46.2726 33.6661 46.2795 33.6188 46.2765C33.5886 46.2709 33.5107 46.272 33.2559 46.1928C33.0206 46.1004 32.4624 45.9601 31.7825 45.1423C31.7683 45.1214 31.6661 44.9977 31.5803 44.708C31.4915 44.4294 31.4887 44.0121 31.55 43.7779C31.6845 43.3095 31.7051 43.4712 31.4828 43.6897C31.2735 43.9209 30.9139 44.2438 30.5027 44.5696C29.6758 45.2266 28.6415 45.9295 27.5732 46.6664C25.434 48.1762 23.0379 49.6957 20.8247 52.4186C20.1465 53.2787 19.5426 54.1895 19.0156 55.1297C16.4151 59.7557 15.7197 64.9513 15.5816 69.4495C15.5563 70.1484 15.5966 70.953 15.8056 71.8191C16.2228 73.7338 17.6195 75.4211 18.7335 76.2699C19.1627 76.6149 19.614 76.9386 20.0855 77.2357C22.9555 79.0287 26.346 79.8732 29.9457 79.3278C30.6921 79.2054 31.4275 79.0335 32.1432 78.8176C36.9263 77.4505 40.6784 73.7176 42.9469 71.4767C42.7841 71.566 42.8814 71.7222 41.6522 72.1748C41.2736 72.2751 40.9061 72.3885 40.0804 72.3141C39.323 72.242 38.4683 71.8614 37.9219 71.3785C37.6444 71.1426 37.4225 70.8834 37.2685 70.667C37.135 70.4802 37.0345 70.3059 36.9557 70.1492C36.7973 69.8315 36.7285 69.5965 36.6893 69.4557C36.6055 69.1378 36.597 68.9915 36.5863 68.8923C36.5775 68.7875 36.578 68.749 36.5775 68.7198C36.5777 68.6671 36.5783 68.6948 36.5751 68.7359C36.5286 69.3424 36.3043 70.6459 36.1958 71.91C36.1739 73.2815 35.7236 74.5187 36.9199 77.3601C37.2475 78.0046 37.6005 78.6624 38.0069 79.3383C38.9192 80.8019 40.0219 82.5258 42.2631 83.9289C43.2172 84.5083 44.2859 84.9451 45.3588 85.2031C50.7998 86.2982 54.4685 84.2789 57.503 83.4831C58.5782 83.1577 59.62 82.7286 60.6031 82.2149C65.2784 79.7539 68.0902 75.8544 70.5785 73.0725C71.0734 72.5134 71.5323 71.9371 71.96 71.3492C75.7339 66.0284 77.3553 60.177 78.2283 54.3542C78.2309 54.3358 78.2335 54.3174 78.236 54.299C78.724 48.7741 75.8874 45.5861 73.7941 42.9624C71.5289 40.3511 69.0766 38.2492 66.6236 36.2879C66.3102 36.0386 65.9756 35.8122 65.6167 35.611C61.1999 33.4552 58.1057 35.3177 56.0865 36.1539C55.6114 36.3826 55.1698 36.6525 54.7703 36.9447C51.6486 39.4229 50.9449 42.1405 50.2171 44.466C50.1869 44.5752 50.1586 44.6845 50.1322 44.7938C49.9657 45.4823 49.8714 46.1997 49.8566 46.9145C49.7989 49.7725 50.9609 52.1809 52.2312 53.9465C52.2412 53.9605 52.2513 53.9744 52.2614 53.9883L52.7836 54.5834C54.4609 56.1959 57.5215 57.9047 60.9637 57.0963L61.6514 56.891C61.8046 56.8247 61.9572 56.7526 62.1068 56.6755C64.3188 55.4369 64.4375 53.614 64.852 52.3897C64.9755 51.9128 64.8917 51.3015 64.7065 50.7567C64.5161 50.2081 64.2397 49.7709 63.8506 49.4747C63.4615 49.1785 62.9664 49.0284 62.3869 48.991C61.8125 48.9574 61.2009 49.0394 60.7741 49.2855C60.7741 49.2855 60.7741 49.2855 60.7741 49.2855C59.8263 49.8127 58.4984 49.7981 58.6858 49.5563C58.6922 49.5481 58.6997 49.5397 58.7059 49.5323L59.3936 49.327C59.3801 49.2733 59.4194 49.2539 59.2538 49.1566C59.0991 49.0595 58.8041 48.8519 58.4746 48.5355L58.9969 49.1306C58.9922 49.124 58.9875 49.1174 58.9828 49.1108C58.3651 48.2504 58.1496 47.5172 58.1716 47.0959C58.1747 46.9805 58.1892 46.8719 58.2185 46.7534C58.2231 46.7346 58.2282 46.7155 58.2338 46.6959C58.6303 45.1192 59.4901 43.7393 59.6965 43.6886C59.7152 43.6752 59.7182 43.6753 59.71 43.6793C60.4384 43.3251 61.0798 43.0924 61.4741 43.0208C61.6677 42.9827 61.7826 42.9875 61.778 42.9884C61.7786 42.9909 61.6466 42.9669 61.5303 42.899C61.4883 42.8755 61.4509 42.8496 61.4229 42.8271C63.6763 44.6188 65.8189 46.4671 67.5176 48.4034C69.241 50.2755 70.2725 52.5462 70.0494 53.1875C70.049 53.1901 70.0486 53.1927 70.0483 53.1952C69.3517 58.0578 67.8184 62.9302 65.2596 66.4759C64.9751 66.8671 64.679 67.2384 64.3723 67.5861C61.5687 70.8365 59.3599 73.5981 56.7825 74.9072C56.2379 75.1926 55.6849 75.4204 55.1087 75.596C51.6821 76.7064 48.6773 77.6339 47.2988 77.2006C47.0125 77.1303 46.7775 77.0323 46.5342 76.8843C46.3008 76.7704 45.6589 76.0777 45.0897 75.0926C44.8265 74.6506 44.5637 74.1581 44.3048 73.6391C44.5136 74.1091 44.4013 73.9663 44.409 73.7233C44.3985 73.4683 44.4146 73.079 44.4554 72.6502C44.5333 71.7415 44.7148 70.8951 44.8585 69.3294C44.8706 69.1544 44.8829 68.9576 44.882 68.6745C44.8807 68.5306 44.8782 68.3919 44.8591 68.1666C44.8497 68.0596 44.8366 67.9438 44.8167 67.8152C44.7923 67.6582 44.758 67.4801 44.7019 67.2736C44.65 67.0854 44.5608 66.79 44.3772 66.4227C44.2859 66.2412 44.1719 66.0443 44.0239 65.8371C43.8531 65.5971 43.611 65.3153 43.3125 65.0615C42.7239 64.5425 41.8198 64.14 41.0056 64.0615C40.1168 63.9813 39.7067 64.1028 39.2714 64.2191C37.8272 64.7435 37.7611 65.0347 37.4128 65.2857C34.3298 68.3402 32.3638 70.0923 29.7531 70.8888C29.3775 71.002 28.9997 71.0886 28.6182 71.1492C27.403 71.3413 25.7599 70.9932 24.5262 70.1903C24.3143 70.0568 24.1061 69.9119 23.9018 69.7544C23.7637 69.6508 23.721 69.5966 23.7415 69.6333C23.7616 69.6649 23.8159 69.7941 23.819 69.8411C23.8254 69.8877 23.8049 69.8431 23.8052 69.6981C23.836 65.607 24.3701 61.9592 25.9805 58.9773C26.3052 58.3752 26.6691 57.8068 27.0728 57.275C28.0712 55.9444 29.9835 54.4951 32.0369 53.0445C33.0754 52.3032 34.1763 51.5487 35.3522 50.6021C36.4731 49.5318 38.0349 48.8546 39.0813 45.4864C39.5921 43.6196 38.7253 41.3424 37.8393 40.3468C36.9763 39.2986 36.1411 39.0218 35.6287 38.8395C35.094 38.6707 34.7268 38.6243 34.4009 38.5881C33.7739 38.5274 33.327 38.5449 32.9105 38.5655C32.0941 38.6133 31.4183 38.7102 30.7653 38.8122C29.4593 39.0221 28.2654 39.2743 27.0738 39.5377C26.4889 39.6677 25.9093 39.801 25.3309 39.9369C21.2554 41.0036 17.438 41.4241 16.1095 40.282C15.9877 40.1964 15.8711 40.1045 15.7542 39.9988C15.4349 39.7211 15.2611 39.4188 15.2966 39.4815C15.3055 39.506 15.3315 39.6011 15.3309 39.7306C15.3108 37.277 15.8711 34.7882 16.712 33.8022C16.8767 33.5954 17.0347 33.4512 17.1965 33.3399C23.8746 28.6336 31.1875 25.3689 39.0414 23.9418C39.6837 23.8231 40.3269 23.7142 40.9791 23.6143C49.9043 22.1807 58.9955 21.7992 67.9576 23.1424C67.9926 23.1477 68.0277 23.153 68.0628 23.1583C68.277 23.1907 68.4919 23.224 68.7076 23.2583C72.9613 23.8954 76.6724 24.7931 81.4093 25.6331Z" fill="white"/>
<path d="M168.915 19.9553C168.17 19.6392 167.33 19.632 166.58 19.9351C165.83 20.2383 165.231 20.8271 164.915 21.5719C164.599 22.3167 164.591 23.1566 164.895 23.9068C165.198 24.6569 165.787 25.256 166.531 25.572C166.531 25.572 166.531 25.572 166.531 25.572C167.412 25.9218 167.93 25.8653 168.319 25.8524C168.667 25.8278 168.947 25.7725 169.163 25.7245C169.615 25.6203 169.925 25.5166 170.238 25.4106C170.839 25.2023 171.342 25 171.851 24.7968C172.84 24.3981 173.787 24.0084 174.732 23.6423C176.617 22.909 178.493 22.2614 180.414 21.708C183.468 20.8265 186.591 20.1949 189.753 19.818C190.913 19.6796 192.051 19.5821 193.221 19.5178C198.218 19.246 203.454 20.4828 208.949 21.5858C209.897 21.7744 210.855 21.9603 211.829 22.1331C214.936 22.7074 218.429 25.1191 221.227 27.833C221.968 28.554 222.668 29.3151 223.304 30.0952C223.652 30.4675 223.91 31.6825 223.761 33.2697C223.674 34.3584 223.456 35.5574 223.204 36.8541C223.046 37.7915 222.182 38.8291 220.656 39.6942C219.884 40.1359 218.936 40.3695 217.99 40.5977C217.791 40.6379 217.598 40.6701 217.408 40.7022C217.115 40.7521 216.822 40.7702 216.549 40.7578C216.412 40.7517 216.281 40.7378 216.167 40.7183C216.069 40.7042 215.904 40.6561 216.016 40.6812C215.883 40.6367 215.8 40.6047 215.742 40.5798C215.717 40.5688 215.712 40.5635 215.749 40.5785C215.775 40.5894 215.821 40.6095 215.899 40.6515C215.99 40.7096 216.031 40.6959 216.431 41.0222C216.613 41.1833 216.862 41.4113 217.144 41.8663C217.184 41.9347 217.193 41.9465 217.265 42.0831C217.328 42.2051 217.39 42.3414 217.446 42.4929C217.558 42.795 217.647 43.1637 217.667 43.5709C217.725 44.391 217.418 45.3006 217.021 45.848C216.924 45.9886 216.824 46.1124 216.725 46.2212C216.652 46.3013 216.602 46.3515 216.542 46.4092C216.427 46.5198 216.316 46.6113 216.213 46.6887C216.006 46.8433 215.83 46.9437 215.682 47.019C215.395 47.1642 215.162 47.2316 215.083 47.2546C214.741 47.3474 214.665 47.3394 214.644 47.3464C214.599 47.3529 214.689 47.3505 214.796 47.3549C215.224 47.3706 215.856 47.4267 216.453 47.4925C217.667 47.6264 218.927 47.8054 220.176 48.0034C222.565 48.3874 225.527 48.9315 226.964 49.4535C227.016 49.4747 227.058 49.4925 227.087 49.5056C227.245 49.5762 226.996 49.4941 226.727 49.1624C226.462 48.8326 226.428 48.5765 226.441 48.6341C226.481 48.7394 226.504 49.4558 226.436 50.1517C226.433 50.1919 226.429 50.2329 226.425 50.2747C226.149 53.2484 225.623 56.1849 224.767 58.9052C224.34 60.257 223.824 61.5593 223.225 62.6658C222.928 63.2151 222.604 63.7156 222.313 64.0719C222.042 64.4335 221.694 64.6262 221.965 64.4765C222.008 64.4576 222.075 64.4319 222.158 64.4094C218.028 65.532 214.767 64.5758 210.721 61.5994C210.711 61.5923 210.701 61.5848 210.69 61.5771C210.547 61.4753 210.401 61.2865 210.22 61.0614C210.127 60.947 210.029 60.8263 209.879 60.6753C209.801 60.598 209.717 60.5166 209.561 60.3911C209.481 60.3274 209.389 60.2541 209.192 60.1263C209.09 60.0625 208.979 59.9875 208.699 59.8506C208.576 59.7921 208.365 59.6951 208.056 59.6025C207.874 59.5487 207.627 59.4866 207.311 59.4508C206.995 59.4143 206.404 59.3868 205.729 59.5694C205.725 59.5705 205.721 59.5715 205.717 59.5726C204.714 59.796 203.257 60.7301 202.609 61.9026C201.94 63.0459 201.864 63.9654 201.821 64.5836C201.78 65.8647 201.96 66.5372 202.095 67.2088C202.391 68.4933 202.713 69.454 202.978 70.3776C203.544 72.1254 203.743 73.9686 203.627 74.0175C203.613 74.0649 203.599 74.1098 203.584 74.1525C203.431 75.3557 200.72 76.4433 196.376 78.8228C196.218 78.921 196.062 79.0011 195.897 79.0687C194.374 79.8543 190.736 78.8265 186.997 77.2086C186.814 77.1344 186.537 76.9826 186.236 76.7668C183.064 74.3708 180.062 69.0538 178.013 64.1766C177.974 64.0817 177.935 63.9877 177.898 63.8945C176.169 59.6978 176.687 56.1644 178.648 51.2225C178.717 51.0393 178.787 50.8559 178.859 50.6694C180.105 47.8888 181.049 47.3125 184.833 47.6921C184.714 47.6794 184.607 47.6568 184.521 47.6325C184.226 47.5437 184.193 47.478 184.265 47.5375C184.339 47.5913 184.506 47.7416 184.694 47.9463C185.077 48.3608 185.541 48.9749 186.041 49.6677C186.191 49.8755 186.346 50.0918 186.508 50.3166C186.508 50.3157 186.507 50.3147 186.506 50.3137C186.467 50.2546 186.543 50.2829 186.547 50.7075C186.55 51.1158 186.445 51.7611 186.23 52.5386C186.209 52.6135 186.187 52.6916 186.165 52.7698L186.399 52.1484C186.448 52.0131 186.677 51.8557 186.454 52.0284C186.438 52.0398 186.422 52.0553 186.405 52.0747C186.075 52.3441 184.2 54.823 184.193 56.4887C184.207 56.9104 184.426 57.4234 184.695 57.8581C184.969 58.2961 185.271 58.6201 185.64 58.8154C186.009 59.0108 186.447 59.0778 186.963 59.0583C187.473 59.0355 188.021 58.928 188.378 58.7027C188.378 58.7027 188.378 58.7027 188.378 58.7027C188.74 58.636 189.099 58.8917 189.356 59.146C189.626 59.3887 189.915 59.5863 190.659 59.2386C190.746 59.1967 190.831 59.1498 190.916 59.0973C191.967 58.4799 193.32 57.2301 193.998 55.7203L194.232 55.0989C194.262 54.9974 194.292 54.8908 194.322 54.7839C194.873 52.6357 195.823 49.1861 193.46 45.5354C193.43 45.4908 193.399 45.4464 193.367 45.4023C193.219 45.1939 193.065 44.9757 192.905 44.75C191.635 43.2977 191.179 41.1994 186.826 39.4752C186.486 39.3791 186.118 39.3046 185.736 39.2637C183.447 38.9588 179.999 38.9285 177.002 40.519C173.926 42.0776 171.919 45.0151 170.948 47.6444C170.874 47.8383 170.8 48.0319 170.726 48.2285C168.531 53.1656 167.364 61.1778 170.13 67.0152C170.184 67.1485 170.239 67.2822 170.296 67.4162C172.892 73.1294 175.329 78.6896 181.409 83.5586C182.108 84.0527 182.895 84.5291 183.846 84.9192C187.669 86.3038 192.499 89.0988 199.047 86.7698C199.652 86.5222 200.237 86.2216 200.789 85.8759C202.805 84.3385 208.842 83.4559 211.423 76.9396C211.489 76.7533 211.551 76.5641 211.608 76.3723C212.544 72.4514 211.52 70.1998 211.041 68.0885C210.758 67.0655 210.466 66.0961 210.32 65.404C210.243 65.0852 210.24 64.7674 210.243 65.0243C210.226 65.152 210.245 65.5416 209.836 66.2541C209.444 66.9889 208.431 67.6217 207.924 67.7164C207.922 67.7169 207.92 67.7175 207.918 67.718C207.252 67.8982 206.673 67.8704 206.367 67.8352C206.06 67.8003 205.824 67.7406 205.653 67.69C205.361 67.6024 205.173 67.5148 205.066 67.4644C204.825 67.3463 204.749 67.2923 204.681 67.2497C204.554 67.1662 204.53 67.1423 204.515 67.1273C204.491 67.1013 204.536 67.1243 204.586 67.1513C204.692 67.2097 204.847 67.301 205.01 67.3968C205.339 67.5917 205.711 67.8141 206.109 68.0928C206.14 68.1142 206.171 68.1357 206.202 68.1572C210.393 71.5267 218.166 74.0338 224.219 71.9785C224.525 71.8955 224.831 71.7837 225.087 71.6723C228.383 69.9505 229.063 68.0935 230.116 66.3882C231.041 64.6621 231.689 62.9615 232.228 61.2544C233.293 57.8392 233.883 54.4222 234.205 50.9946C234.21 50.936 234.215 50.8778 234.22 50.82C234.292 49.7764 234.409 48.7293 234.123 47.1101C233.969 46.3149 233.626 45.2075 232.804 44.2008C231.981 43.1846 230.962 42.6403 230.325 42.3529C230.181 42.288 230.048 42.2315 229.922 42.1804C226.389 40.96 224.066 40.7897 221.252 40.3829C219.885 40.2131 218.527 40.0715 217.113 39.9722C216.394 39.9247 215.698 39.8807 214.828 39.8859C214.569 39.8898 214.368 39.8916 213.977 39.9274C213.827 39.9451 213.523 39.9667 213.061 40.0956C212.95 40.1272 212.654 40.2161 212.334 40.3789C212.167 40.4637 211.975 40.5738 211.755 40.7386C211.645 40.8211 211.528 40.9178 211.406 41.0338C211.344 41.0942 211.291 41.1467 211.215 41.2302C211.113 41.3435 211.009 41.4718 210.909 41.6171C210.499 42.183 210.186 43.1125 210.245 43.9537C210.266 44.3714 210.357 44.7509 210.473 45.0642C210.531 45.2213 210.595 45.3632 210.661 45.491C210.736 45.6341 210.746 45.6467 210.789 45.7188C211.086 46.1991 211.359 46.454 211.574 46.6435C211.778 46.8214 212.007 46.9708 212.073 47.0112C212.159 47.0652 212.237 47.1102 212.31 47.1499C212.455 47.2291 212.58 47.2883 212.697 47.3403C212.875 47.4182 213.003 47.4668 213.149 47.5199C213.43 47.6201 213.592 47.6686 213.831 47.7398C215.895 48.2707 217.268 48.1268 218.851 47.8233C219.342 47.7174 219.817 47.5692 220.277 47.3874C221.538 46.8707 222.746 46.1872 223.993 45.4626C226.344 44.1159 229.051 41.6955 229.718 38.0968C229.966 36.7741 230.235 35.3413 230.351 33.7667C230.481 31.5648 230.482 28.5921 228.311 25.9289C227.49 24.9588 226.629 24.0539 225.732 23.1858C222.27 19.9585 218.453 16.9108 212.947 15.7833C212.039 15.6248 211.121 15.4501 210.192 15.2695C204.791 14.2283 199.013 13.0022 192.843 13.4017C191.559 13.4894 190.308 13.607 189.029 13.7594C185.547 14.1744 182.09 14.8733 178.723 15.8453C176.608 16.4543 174.54 17.1698 172.523 17.9543C171.517 18.3441 170.514 18.7571 169.576 19.1351C169.101 19.3257 168.642 19.5071 168.255 19.6403C168.063 19.7069 167.889 19.7576 167.821 19.7722C167.792 19.7797 167.793 19.7738 167.898 19.7654C168.016 19.7705 168.266 19.7027 168.915 19.9553Z" fill="white"/>
</svg>
