<svg width="1072" height="875" viewBox="0 0 1072 875" fill="none" xmlns="http://www.w3.org/2000/svg">
<path fill-rule="evenodd" clip-rule="evenodd" d="M988.076 770.778C970.008 759.555 955.619 767.099 956.24 780.775C956.275 781.53 956.33 782.258 956.404 782.963C936.581 786.404 923.795 790.312 924.942 797.873C925.529 801.746 927.691 804.109 932.148 805.178C921.692 807.802 915.713 811.327 916.385 816.854C917.525 826.234 927.209 827.905 953.753 824.679C965.512 823.25 977.32 822.478 986.727 821.247C992.318 823.426 1002.16 823.251 1018.05 821.32C1044.59 818.094 1071.39 818.223 1070.25 808.843C1069.16 799.941 1052.48 794.611 1028.09 796.849C1025.47 795.72 1022.3 794.823 1018.65 794.194C1018.74 793.434 1018.77 792.626 1018.73 791.769C1018.11 778.093 1007.39 774.177 988.076 770.778Z" fill="white"/>
<path d="M462 420.37C462 428.429 451.379 431 434.701 431C418.024 431 407 429.256 407 421.197C407 413.138 418.024 415.713 434.701 415.713C451.379 415.713 462 412.311 462 420.37Z" fill="white"/>
<path fill-rule="evenodd" clip-rule="evenodd" d="M505.245 343.281C529.21 328.663 551.168 334.975 552.661 349.955C553.571 359.087 550.545 365.136 541.899 369.886C560.062 371.189 571.059 374.209 571.059 380.891C571.059 391.019 558.083 394.213 521.469 394.356C516.629 400.348 501.735 402.304 471.062 402.304C432.418 402.304 394 405.992 394 395.623C394 385.782 417.006 377.769 452.383 376.977C455.948 375.401 460.344 374.002 465.473 372.834C465.204 372.018 465.02 371.142 464.927 370.204C463.434 355.224 478.125 349.54 505.245 343.281Z" fill="white"/>
<path d="M601.599 363.2C601.324 369.96 588.347 371.657 551.707 370.731C515.067 369.805 478.545 371.289 478.819 364.529C479.094 357.769 503.532 352.943 540.172 353.869C576.812 354.794 601.873 356.441 601.599 363.2Z" fill="white"/>
<path d="M609 382.823C609 393.977 597.956 397.315 566.576 397.315C535.196 397.315 504 401.281 504 390.127C504 378.974 524.741 370 556.121 370C587.501 370 609 371.669 609 382.823Z" fill="white"/>
<path fill-rule="evenodd" clip-rule="evenodd" d="M518.089 612.499C523.68 608.576 533.373 608.893 543.642 616.177C561.038 620.847 570.46 625.087 569.503 636.261C569.443 636.961 569.325 637.614 569.153 638.222C572.443 639.094 575.263 640.137 577.55 641.313C600.242 641.903 615 647.882 615 655.223C614.999 662.958 590.356 660.208 565.568 660.208C558.644 660.208 552.974 660.024 548.396 659.595C540.486 660.993 528.301 661.523 510.645 661.523C473.714 661.523 437 664.274 437 656.539C437.001 651.957 445.567 647.905 460.227 645.364C462.478 640.894 470.49 637.191 482.449 635.327C482.901 625.806 492.182 621.835 508.358 617.493C511.703 615.12 514.988 613.487 518.089 612.499Z" fill="white"/>
<path d="M265 73.6985C265 80.7502 254.379 82.9998 237.701 82.9998C221.024 82.9998 210 81.4738 210 74.4221C210 67.3704 221.024 69.6236 237.701 69.6236C254.379 69.6236 265 66.6468 265 73.6985Z" fill="white"/>
<path fill-rule="evenodd" clip-rule="evenodd" d="M21.0765 479.779C3.00767 468.555 -11.3813 476.099 -10.7596 489.775C-10.7253 490.529 -10.67 491.258 -10.5959 491.963C-30.4182 495.404 -43.2046 499.311 -42.0582 506.873C-41.4709 510.745 -39.3095 513.108 -34.8537 514.178C-45.3082 516.802 -51.2864 520.327 -50.6149 525.853C-49.4749 535.234 -39.7911 536.906 -13.2464 533.68C-1.48804 532.251 10.3191 531.477 19.7258 530.247C25.3173 532.426 35.1636 532.25 51.0475 530.32C77.5922 527.094 104.387 527.222 103.247 517.842C102.164 508.94 85.4799 503.611 61.0922 505.848C58.4703 504.72 55.2972 503.822 51.6462 503.193C51.7409 502.433 51.7702 501.626 51.7313 500.769C51.1096 487.093 40.3937 483.177 21.0765 479.779Z" fill="white"/>
<path fill-rule="evenodd" clip-rule="evenodd" d="M212.692 7.01045C236.323 -5.36477 257.976 -0.0204962 259.447 12.6608C260.345 20.3931 257.359 25.5146 248.83 29.5358C266.743 30.6388 277.588 33.1926 277.588 38.8503C277.588 47.4241 264.793 50.1275 228.69 50.2487C223.919 55.3214 209.232 56.9782 178.986 56.9782C140.882 56.9782 103.001 60.0994 103 51.322C103 42.9913 125.685 36.2057 160.568 35.5358C164.083 34.2014 168.418 33.0173 173.475 32.028C173.21 31.338 173.03 30.5966 172.938 29.8024C171.466 17.1213 185.951 12.3094 212.692 7.01045Z" fill="white"/>
<path d="M309.079 24.3813C308.859 30.2257 298.477 31.6929 269.165 30.8923C239.854 30.0918 210.636 31.3743 210.855 25.5299C211.075 19.6856 230.626 15.5125 259.938 16.3131C289.249 17.1136 309.298 18.537 309.079 24.3813Z" fill="white"/>
<path d="M315 40.4492C315 50.4078 304.166 53.388 273.384 53.388C242.602 53.388 212 56.9295 212 46.9708C212 37.0121 232.346 28.9998 263.128 28.9998C293.911 28.9998 315 30.4905 315 40.4492Z" fill="white"/>
<path fill-rule="evenodd" clip-rule="evenodd" d="M-13.9805 791.47C-4.80937 784.453 11.0939 785.02 27.9395 798.048C56.477 806.398 71.9355 813.983 70.3652 833.967C70.2668 835.22 70.0735 836.389 69.791 837.477C75.1876 839.036 79.8132 840.902 83.5645 843.006C120.791 844.061 145 854.754 145 867.882C145 881.716 104.574 876.797 63.9102 876.797C52.5511 876.797 43.2489 876.47 35.7402 875.703C22.7634 878.202 2.77357 879.151 -26.1904 879.151C-86.7722 879.151 -146.999 884.07 -147 870.237C-147 862.043 -132.949 854.796 -108.902 850.251C-105.21 842.256 -92.0639 835.634 -72.4434 832.299C-71.7027 815.271 -56.4775 808.168 -29.9395 800.402C-24.4532 796.159 -19.0668 793.238 -13.9805 791.47Z" fill="white"/>
<path fill-rule="evenodd" clip-rule="evenodd" d="M228.468 788.777C231.672 785.987 237.226 786.213 243.109 791.395C253.078 794.718 258.477 797.735 257.929 805.686C257.894 806.185 257.827 806.651 257.729 807.085C259.615 807.706 261.233 808.446 262.544 809.284C275.545 809.705 284 813.957 284 819.179C284 824.683 269.878 822.726 255.674 822.726C251.702 822.726 248.45 822.596 245.825 822.29C241.292 823.283 234.312 823.662 224.2 823.662C203.038 823.662 182.001 825.619 182 820.116C182 816.856 186.909 813.971 195.31 812.163C196.6 808.983 201.192 806.35 208.044 805.023C208.302 798.248 213.62 795.421 222.891 792.332C224.808 790.643 226.69 789.48 228.468 788.777Z" fill="white"/>
</svg>
