<svg width="573" height="631" viewBox="0 0 573 631" fill="none" xmlns="http://www.w3.org/2000/svg">
<path d="M4.50362 196.722C3.81981 244.03 103.175 237.535 188.975 208.359C238.494 191.521 281.286 155.885 371.575 174.419C431.02 186.621 417.008 205.146 450.128 220.157" stroke="white" stroke-width="9" stroke-linecap="round" stroke-dasharray="16 30"/>
<path d="M202.33 427.979C227.449 404.903 283.104 356.353 373.217 375.694C451.221 387.169 506.52 326.47 511.896 292.366" stroke="white" stroke-width="9" stroke-linecap="round" stroke-dasharray="16 30"/>
<path d="M61.5545 59.7384C62.9248 55.1536 75.3649 45.8293 138.02 20.6296C197.412 -3.25817 268.713 19.1452 282.713 20.0866" stroke="white" stroke-width="9" stroke-linecap="round" stroke-dasharray="16 30"/>
<path d="M99.614 553.469C112.543 631.28 232.974 626.393 291.964 625.311C305.512 627.047 357.756 629.171 440.742 611.87C523.728 594.569 564.327 579.224 568.146 578.162" stroke="white" stroke-width="9" stroke-linecap="round" stroke-dasharray="16 30"/>
</svg>
