<svg width="329" height="78" viewBox="0 0 329 78" fill="none" xmlns="http://www.w3.org/2000/svg">
<path d="M273.095 6.98711C286.58 6.47053 298.602 8.35171 310.525 9.68662C311.104 9.75753 311.693 9.83013 312.293 9.90454C312.919 9.98309 313.544 10.0763 314.287 10.2354C314.819 10.3523 315.505 10.515 316.396 10.8415C316.622 10.9248 316.865 11.0212 317.13 11.1368C317.29 11.2062 317.934 11.49 318.61 11.8972C319.895 12.7265 322.221 14.1432 323.821 18.0865C324.808 20.4614 324.834 23.9756 323.985 26.2646C323.174 28.6302 322.009 30.0185 321.13 30.9389C320.01 32.0589 319.409 32.4259 318.777 32.843C318.177 33.2209 317.686 33.4713 317.277 33.6663C317.009 33.7935 316.765 33.9006 316.536 33.9955C316.254 34.1124 315.993 34.21 315.747 34.2992C316.179 34.376 316.607 34.4512 317.031 34.5273C317.624 34.6032 318.284 34.6808 319.453 35.0146C320.059 35.2 320.762 35.4153 321.891 36.0042C322.933 36.6089 324.669 37.4715 326.54 40.3067C328.548 43.1163 328.768 48.1326 327.844 50.4178C327.024 52.8725 326.11 53.9116 325.456 54.7298C324.147 56.2232 323.373 56.7029 322.703 57.181C320.722 58.4642 319.625 58.8267 318.164 59.2902C316.986 59.6331 315.897 59.8569 314.877 60.03C314.744 60.0429 314.611 60.0536 314.478 60.0659C314.795 61.2594 314.967 62.657 314.864 64.274C314.259 69.4833 311.66 71.4545 310.824 72.3069C309.61 73.3459 309.1 73.5814 308.527 73.9109C307.554 74.4271 307.069 74.5853 306.667 74.7332C306.269 74.8721 306 74.9489 305.772 75.0128C304.42 75.3677 304.048 75.3887 303.537 75.4776C303.074 75.5484 302.705 75.5962 302.38 75.6381C301.478 75.7537 300.605 75.8405 299.753 75.9084C291.88 76.479 285.129 75.8676 279.077 75.7114C278.428 75.6934 277.774 75.6739 277.123 75.6526C264.477 75.2231 252.098 74.3664 239.727 73.438C239.235 73.4007 238.747 73.3652 238.254 73.3313C228.615 72.6542 218.457 72.6913 207.834 72.1717C207.409 72.1511 206.989 72.1308 206.573 72.1115C194.696 71.4818 183.099 71.71 170.084 71.0158C169.772 70.9969 169.463 70.9788 169.156 70.9613C161.326 70.4891 153.783 70.5186 145.361 70.5473C145.151 70.5468 144.941 70.5476 144.732 70.5493C141.074 70.5742 137.272 70.9499 133.04 71.4695C128.798 71.9754 124.07 72.6518 118.73 72.7568C118.582 72.7594 118.433 72.7638 118.282 72.7682C113.232 72.8741 105.633 74.3681 97.3624 73.9732C97.2426 73.9681 97.1208 73.9634 96.9983 73.9591C91.3945 73.769 84.6771 74.4142 77.476 74.7654C77.3912 74.7695 77.3061 74.7737 77.2218 74.7779C72.9539 74.9887 68.9512 75.4564 64.9636 76.2897C64.9131 76.3002 64.8622 76.3105 64.8115 76.321C59.9445 77.358 53.5403 77.4625 47.4288 76.5895L47.7889 76.5874C47.7869 76.586 47.7846 76.5841 47.7826 76.5827C47.6584 76.3835 46.4625 72.9997 44.7754 71.4745C44.2946 70.9997 43.7434 70.1139 43.31 69.3295C42.8728 68.5268 42.5891 67.8897 42.4543 67.2421C42.4496 67.2197 42.4459 67.1963 42.4416 67.1738C40.356 67.374 38.2644 67.5689 36.1672 67.7563C31.9645 68.1283 27.7676 68.4765 23.3853 68.7279C21.1872 68.8491 18.9827 68.9544 16.4953 68.9581C15.1621 68.9441 14.0483 68.968 11.8942 68.719C11.6137 68.6834 11.255 68.6317 10.9001 68.5681C10.7196 68.5359 10.5315 68.4995 10.3339 68.4575C10.2342 68.4363 10.1371 68.4148 10.0263 68.389C9.88584 68.3564 9.74 68.3206 9.58774 68.2806C8.96104 68.1104 8.321 67.9286 7.29279 67.4671C6.59596 67.1451 5.7627 66.7109 4.76511 65.9459C4.26826 65.5618 3.73095 65.0899 3.1807 64.4889C2.61903 63.8931 1.6489 62.6227 1.04812 61.2569C-0.357025 58.5671 -0.139293 54.1956 0.486861 52.6439C1.11042 50.6231 2.01534 49.307 2.76235 48.3777C2.93923 48.1586 3.17878 47.8888 3.27632 47.784C3.38814 47.6626 3.4978 47.548 3.60471 47.44C3.81883 47.2239 4.02386 47.0323 4.21847 46.8591C4.60784 46.513 4.95915 46.2374 5.28251 46.0015C5.44409 45.8837 5.59939 45.7766 5.74828 45.6765C5.88666 45.5837 5.96096 45.5352 6.06356 45.4696C6.25719 45.3461 6.44183 45.2343 6.61947 45.1306C6.97501 44.9232 7.30476 44.7472 7.62114 44.5872C7.67741 44.5588 7.73294 44.5333 7.78587 44.5072C7.75466 44.4682 7.72193 44.429 7.69059 44.3888C7.15559 43.701 6.40877 42.6008 5.8484 41.0532C4.43594 37.9764 5.44236 32.4106 7.04681 30.4202C7.4094 29.856 7.78172 29.3776 8.14113 28.9684C8.46966 28.5956 8.75415 28.3136 9.04141 28.0483C9.32544 27.787 9.59544 27.5628 9.84989 27.3663C10.0676 27.1982 10.274 27.0504 10.4698 26.9178C12.0236 25.9057 12.6815 25.7325 13.2661 25.4991C13.8375 25.295 14.2108 25.1955 14.5326 25.1126C16.8256 24.5946 17.4285 24.6659 18.5743 24.6205C23.9545 24.6252 28.017 24.4871 32.7695 23.9226C33.1872 23.874 33.6065 23.8207 34.0276 23.7672C33.5788 23.6961 33.1296 23.6235 32.6798 23.5552C31.0241 23.3032 29.3775 23.0744 27.6235 22.8459C26.757 22.7307 25.869 22.6203 24.8388 22.4695C24.2996 22.3873 23.7829 22.3161 22.9336 22.1313C22.6933 22.0766 22.5283 22.0394 22.1439 21.9307C21.7738 21.8154 21.4888 21.7548 20.639 21.365C20.4409 21.2705 20.2233 21.1582 19.9799 21.0154C19.7567 20.8865 19.2439 20.5634 18.7756 20.1576C18.275 19.714 17.7681 19.2424 17.1338 18.2249C16.3652 17.0161 15.7982 15.0361 16.0289 13.2294C16.4941 9.90448 18.1964 8.626 18.6947 8.11519C19.2817 7.60003 19.7382 7.31797 20.1178 7.09709C20.4486 6.90848 20.6619 6.80842 20.79 6.74715C27.1047 4.21573 31.4663 2.79677 35.9721 0.730521C37.852 -0.144658 40.0026 -0.237192 41.9508 0.473226C43.8989 1.18373 45.4854 2.6388 46.3607 4.51867C46.518 4.85668 46.6496 5.20433 46.7562 5.55709C52.0946 5.01147 57.438 4.54508 62.7782 4.64946C63.1086 4.65599 63.4415 4.66481 63.7769 4.67698C74.7974 5.10307 85.3839 5.955 95.9864 6.76291C116.111 8.30914 136.11 10.009 155.66 10.4714C155.841 10.4753 156.022 10.4787 156.202 10.4827C176.924 10.9018 197.909 11.8575 218.308 12.777C218.31 12.7771 218.313 12.7768 218.316 12.7769C235.184 13.6477 250.262 9.62878 271.25 7.08268C271.833 7.04265 272.477 7.00746 273.095 6.98711ZM313.729 58.0293C313.977 58.0756 314.144 58.0944 314.29 58.1147C314.101 58.0831 313.912 58.0513 313.724 58.0199C313.726 58.023 313.727 58.0262 313.729 58.0293Z" fill="white"/>
</svg>
