<svg width="195" height="560" viewBox="0 0 195 560" fill="none" xmlns="http://www.w3.org/2000/svg">
<path d="M88.1123 81.8687C88.1123 83.6527 88.821 85.3637 90.0824 86.6251C91.3439 87.8866 93.0548 88.5953 94.8388 88.5953C96.6228 88.5953 98.3338 87.8866 99.5952 86.6251C100.857 85.3637 101.565 83.6527 101.565 81.8687C101.559 82.3749 101.516 82.5164 101.501 82.6163C101.483 82.7065 101.478 82.7144 101.484 82.6971C101.495 82.6567 101.545 82.5093 101.616 82.3402C101.76 81.9936 101.982 81.5442 102.24 81.0851C102.76 80.1603 103.427 79.1693 104.159 78.2048C104.19 78.1645 104.221 78.124 104.252 78.0835C104.105 78.2843 103.924 78.4323 103.901 78.4719C103.873 78.5161 104 78.4861 104.256 78.4634C104.771 78.4084 105.729 78.4102 106.806 78.518C108.999 78.7236 111.644 79.2646 114.62 79.6299C114.72 79.6421 114.821 79.6542 114.923 79.6662C116.306 79.96 117.713 80.6691 119.375 81.8613C120.635 82.7665 121.988 83.9324 123.426 85.2569C123.556 85.3762 123.686 85.4968 123.817 85.6191C126.143 88.0249 128.907 93.7021 131.014 99.1491C131.13 99.4445 131.243 99.7353 131.358 100.034C132.177 102.738 132.085 104.383 130.302 109.128C130.165 109.495 130.015 109.889 129.849 110.335C128.634 113.515 124.729 118.435 120.628 122.276C120.268 122.618 119.903 122.956 119.533 123.292C116.748 126.361 106.178 127.251 96.9376 125.174C96.3168 125.048 95.6927 124.909 95.0857 124.763C90.5886 123.598 88.1855 120.87 85.1455 114.134C84.8428 113.458 84.5398 112.746 84.227 111.994C83.1725 109.366 82.6271 105.463 82.6883 101.754C82.6968 101.024 82.7304 100.292 82.7886 99.5581C82.6336 98.6642 85.0268 93.6602 87.9236 88.6132C88.4859 87.5909 89.0649 86.5251 89.6458 85.4099C89.8291 85.0826 89.8847 85.015 90.1825 84.7718C90.4755 84.5423 91.1048 84.1768 92.1223 83.8305C94.1564 83.1162 97.4552 82.6311 101.075 82.3607C102.194 82.2738 103.355 82.2007 104.548 82.1329C104.804 82.0123 106.874 82.5269 110.021 85.1333C110.845 85.7933 111.725 86.5499 112.768 87.4444C112.984 87.653 113.288 87.8824 113.92 89.5664C114.216 90.3683 114.539 91.4402 114.911 92.7484C116.021 95.9622 114.413 101.646 110.125 107.546C109.414 108.547 108.637 109.558 107.817 110.563C107.876 110.456 108.26 110.209 108.194 110.258C108.143 110.287 107.588 110.449 106.65 110.481C104.754 110.572 101.705 110.153 98.3885 109.466C96.9757 109.179 95.4856 108.849 93.9081 108.506C93.8467 108.488 93.9033 108.513 93.8434 108.478C93.7909 108.443 93.6206 108.313 93.3788 107.996C93.1169 107.655 92.7922 107.101 92.5188 106.416C92.5391 106.441 92.5413 106.599 92.5429 106.42C92.5496 106.254 92.6303 105.766 92.9158 105.07C93.1929 104.384 93.652 103.523 94.2663 102.604C95.0902 101.369 96.0172 100.26 97.052 99.2698C97.869 98.4882 98.7538 97.7797 99.7123 97.1407C100.477 96.6272 101.176 96.3549 101.601 96.2656C101.987 96.1855 102.133 96.208 102.27 96.2329C102.199 96.2178 102.127 96.2017 102.056 96.1848C98.978 95.4896 97.0103 93.1626 96.4576 92.0176C95.8154 90.7606 95.7467 90.0978 95.7151 89.2612C95.7093 88.7736 95.8193 88.4664 95.8101 88.4967C95.8054 88.5172 95.6735 88.8196 95.3771 89.2655C94.9381 89.9377 94.1821 90.8737 93.1238 92.0547C92.9768 92.2196 92.8235 92.3906 92.6641 92.5681C93.5168 91.603 94.6105 90.9569 95.3153 90.686C96.0387 90.4025 96.416 90.3776 96.534 90.3627C96.5879 90.3579 96.5936 90.3595 96.5621 90.3596C97.2862 90.2976 99.5506 90.7835 101.057 92.5423C101.122 92.6147 101.182 92.6863 101.242 92.7592C101.981 93.6973 102.122 94.208 102.247 94.5991C102.353 94.9916 102.392 95.2743 102.372 95.7533C102.366 95.8607 102.355 95.9782 102.338 96.109C102.133 97.5222 101.464 98.3774 100.898 98.8333C100.886 98.8433 100.873 98.8541 100.858 98.8657C100.518 99.271 98.1388 100.341 96.8845 100.259C95.6102 100.266 95.5008 100.078 95.731 100.184C96.0891 100.304 97.0968 100.782 97.9257 101.283C98.4746 101.61 99.0123 101.968 99.4402 102.289C99.8579 102.594 100.208 102.932 100.113 102.84C100.085 102.81 100.022 102.742 99.9089 102.594C99.6662 102.262 99.2245 101.681 98.799 100.432C98.3697 99.2293 98.1396 97.1308 98.6263 95.3056C99.7574 91.505 101.398 90.9005 101.616 90.6391C102.445 90.1674 101.796 90.6362 100.344 90.6371C99.0262 90.6821 97.2167 90.5304 95.2731 90.223C95.5487 90.257 95.9816 90.4303 96.1558 90.5532C96.3428 90.6757 96.2827 90.6784 96.0813 90.4239C95.6929 89.9607 94.9786 88.6945 94.3697 87.0456C94.2072 86.5731 94.1458 86.1956 94.3534 85.3272C94.4448 84.9733 94.5998 84.5654 94.7939 84.1926C94.9737 83.8318 95.2543 83.4583 95.257 83.4656C95.5445 83.202 95.5831 83.0246 97.1614 82.5499C97.9723 82.3151 99.0568 82.11 100.958 81.6976C102.306 81.326 103.921 81.2465 107.415 79.3025C111.224 77.0263 113.312 73.4488 114.148 70.372C114.915 67.1752 115.25 64.2155 113.266 59.703C111.776 56.691 110.099 55.1429 109.012 54.0948C107.375 52.6058 106.521 51.9709 106.253 51.6909C105.966 51.4178 106.423 51.7766 106.795 52.6696C107.008 53.1443 107.061 53.7638 107.046 53.8419C107.037 53.9416 107.064 53.5665 107.266 52.893C107.652 51.5222 108.655 49.1987 109.752 46.3253C110.747 43.6642 111.879 40.3952 112.329 36.3354C112.364 36.0046 112.4 35.7497 112.395 35.7842C112.393 35.797 112.389 35.8196 112.383 35.8547C112.375 35.8979 112.374 35.9066 112.341 36.0656C112.31 36.2087 112.267 36.41 112.165 36.7656C112.113 36.9449 112.046 37.1643 111.939 37.4587C111.884 37.6097 111.827 37.7609 111.737 37.9777C111.349 38.7196 111.179 39.8041 108.805 42.1445C107.597 43.2502 105.337 44.8698 101.925 45.2305C98.5125 45.6437 95.0631 44.1781 93.3758 42.7841C92.5118 42.127 91.7525 41.2853 91.4927 40.9628C91.2838 40.7109 91.1041 40.4735 90.946 40.2507C90.6301 39.8049 90.3986 39.4176 90.2119 39.0772C89.4941 37.7266 89.338 37.0511 89.1836 36.5358C89.0477 36.0332 88.9933 35.7302 88.9521 35.4975C88.9299 35.3669 88.924 35.3254 88.9177 35.2838C88.9113 35.2413 88.9057 35.2024 88.9008 35.1665C88.8625 34.8828 88.8558 34.7704 88.8512 34.7157C88.8459 34.6403 88.851 34.707 88.8543 34.8122C88.8578 34.9174 88.8603 35.0241 88.8627 35.1718C88.8675 35.4932 88.8683 35.7518 88.8671 36.1226C88.8611 37.4834 88.8231 38.9425 88.7712 40.4108C88.6645 43.3766 88.5004 46.3546 88.2835 49.3125C88.0652 52.2665 87.7959 55.1916 87.4378 57.9787C87.2609 59.3503 87.0565 60.7119 86.8308 61.8953C86.7215 62.4703 86.5995 63.0324 86.4918 63.4515C86.3969 63.8492 86.2512 64.2166 86.377 63.9006C86.4409 63.77 86.5783 63.384 87.1557 62.5646C87.4007 62.2662 87.5352 61.9236 88.8226 60.8206C89.3586 60.3983 90.6645 59.3297 93.0239 58.6868C95.7569 57.8017 100.19 58.5399 102.509 60.3008C104.663 61.8018 105.463 63.2227 105.857 63.8459C106.289 64.5807 106.493 65.1048 106.603 65.3901C106.844 66.0489 106.864 66.2245 106.897 66.3548C106.937 66.5537 106.894 66.3487 106.867 66.11C106.836 65.848 106.802 65.5001 106.772 65.1285C106.648 63.5809 106.562 61.6408 106.448 59.6458C106.164 55.561 106.101 51.4804 104.592 45.6427C104.458 45.1615 104.322 44.6914 104.187 44.2329C103.138 40.7241 102.086 37.8948 101.77 36.0302C101.857 36.5585 101.879 37.0797 101.854 37.5334C101.655 39.6787 101.115 39.8781 101.321 39.7018C101.455 39.5154 102.03 38.9407 102.502 38.6006C101.949 39.0017 101.469 39.3654 100.241 39.9283C99.6076 40.2086 98.8402 40.4848 97.9034 40.6816C96.777 40.9204 95.3046 41.0379 93.7345 40.7945C92.0904 40.5611 90.1978 39.8186 88.7975 38.8191C87.4455 37.8731 86.5058 36.8069 85.8387 35.8354C84.6833 34.1202 84.344 32.8175 84.1456 32.0712C83.7579 30.3852 83.821 29.767 83.8085 29.1824C83.8174 28.6212 83.8575 28.2578 83.8921 27.9758C84.0492 26.8541 84.1948 26.4927 84.3295 26.0691C85.0158 24.6045 85.0296 23.3017 88.8119 20.9816C90.6282 20.0246 92.4299 19.7952 93.8096 19.882C97.4447 20.2141 99.2408 21.9215 100.498 23.9017C100.935 24.6393 101.154 25.2469 101.297 25.7387C101.744 27.6992 101.598 28.1935 100.983 29.6836C100.816 30.0241 100.621 30.3415 100.409 30.627C99.4077 31.9124 98.4025 32.5509 96.8332 32.8798C96.4978 32.9416 96.1497 32.9769 95.7969 32.9823C94.163 33.0064 92.497 32.422 91.1899 31.153C90.9285 30.8981 90.6839 30.6179 90.4587 30.3098C89.2683 28.7963 88.7959 26.0427 89.4756 24.0186C89.4996 23.9392 89.5248 23.8607 89.551 23.7834C89.6649 23.447 89.784 23.1706 89.8985 22.9334C90.8769 21.2148 91.2209 20.8736 92.9982 20.1925C93.1925 20.1338 93.3825 20.0877 93.565 20.0528C95.5406 19.7646 96.0693 20.1837 96.6669 20.5101C96.7176 20.5435 96.7693 20.5794 96.8226 20.6187C97.3585 21.099 98.7526 22.0971 98.9283 25.5676C98.9298 25.7704 98.9235 25.9675 98.9107 26.1572C98.4814 29.4196 97.5862 29.6634 97.2157 30.1163C97.1941 30.1339 97.1715 30.1518 97.1475 30.1702C96.8491 30.4042 95.5736 29.508 94.5756 28.2863C93.5205 27.0805 92.9313 25.5964 92.41 25.2597C92.3845 25.2448 92.3593 25.2319 92.3342 25.2213C91.6289 24.8733 91.8901 24.8893 92.1932 25.3069C92.5214 25.708 92.9733 26.3723 93.4865 27.1447C94.3468 28.4351 95.6844 29.331 97.2052 29.6351C98.726 29.9393 100.305 29.6268 101.596 28.7666C102.886 27.9063 103.782 26.5686 104.086 25.0478C104.39 23.5271 104.078 21.9477 103.218 20.6573C103.218 20.6573 103.218 20.6573 103.218 20.6573C101.993 19.1624 101.532 16.8775 96.8965 14.4526C96.8099 14.4159 96.7229 14.378 96.6353 14.339C92.9232 12.3559 86.2409 9.0048 82.8526 11.5672C82.7217 11.6678 82.5937 11.7688 82.4669 11.8714C79.4264 14.5071 76.2765 17.7992 75.5729 24.5852C75.5461 24.9831 75.5336 25.3887 75.5372 25.8003C75.7613 32.8735 79.4773 37.0462 82.8343 39.5991C83.12 39.8096 83.4085 40.0105 83.7008 40.2029C87.5625 42.6649 92.1436 44.2262 97.9979 43.2104C98.5515 43.1045 99.1088 42.9696 99.6657 42.8041C104.969 41.0559 108.361 38.1418 110.978 33.1244C111.294 32.472 111.587 31.7676 111.843 30.9923C111.904 30.809 111.961 30.6246 112.015 30.4393C113.479 25.7709 112.42 20.0465 109.59 16.3285C109.05 15.5905 108.456 14.9063 107.815 14.2776C104.521 11.0408 100.06 9.35238 95.6339 9.40473C94.6757 9.41426 93.7238 9.50427 92.7917 9.67003C88.1884 10.5326 84.3693 12.8925 81.5331 16.6553C80.9148 17.4904 80.3623 18.3932 79.8942 19.348C77.9434 23.6139 77.4461 27.3764 78.7269 32.3107C79.083 33.5316 79.5977 34.8468 80.4317 36.2316C82.8055 40.0404 86.5702 43.1053 92.3668 43.5803C94.5551 43.7175 97.1861 43.3476 99.724 42.015C104.71 39.0443 105.482 36.5049 106.623 33.7807C106.861 33.0557 107.092 32.3879 107.291 30.9482C107.335 30.5911 107.383 30.1452 107.393 29.5036C107.381 28.84 107.441 28.1438 107.034 26.3774C106.827 25.5957 106.472 24.2501 105.295 22.5047C104.616 21.5157 103.663 20.4353 102.295 19.4783C100.879 18.4674 98.9669 17.7173 97.3035 17.481C95.715 17.2348 94.2221 17.3531 93.0747 17.5963C92.1204 17.7968 91.3347 18.079 90.6816 18.368C89.4154 18.9486 88.9078 19.33 88.3175 19.7586C84.5352 23.1791 79.8302 25.6499 78.343 36.3137C78.2822 37.4732 78.3406 38.7035 78.5449 39.9301C79.3398 44.6074 80.4947 48.0574 81.286 50.9079C81.3927 51.2796 81.494 51.6413 81.5897 51.994C82.0427 53.6198 82.3675 57.3237 82.5308 60.9211C82.6269 62.7897 82.6909 64.696 82.8614 67.0026C82.9689 68.2084 83.0141 69.3271 83.4613 71.5012C83.6072 72.137 83.7385 72.7409 84.1549 73.8705C84.7574 74.9044 84.5476 76.6441 89.0195 80.1483C91.5491 82.0522 96.2112 82.8298 99.1948 81.8781C101.76 81.1856 103.323 79.952 104.014 79.3995C105.679 77.9796 106.086 77.2998 106.65 76.563C107.585 75.2549 108.101 74.1234 108.411 73.4132C110.714 67.2751 110.653 64.6821 111.24 61.0503C111.68 57.6191 111.976 54.3512 112.219 51.0735C112.459 47.796 112.637 44.5715 112.756 41.2648C112.814 39.6137 112.858 37.9981 112.867 36.2125C112.862 35.2223 112.889 34.5913 112.785 32.928C112.763 32.6419 112.736 32.334 112.676 31.8926C112.669 31.837 112.66 31.779 112.651 31.718C112.642 31.6591 112.634 31.5978 112.604 31.4263C112.551 31.123 112.484 30.76 112.335 30.2085C112.167 29.6442 111.997 28.9307 111.264 27.5535C111.074 27.2065 110.839 26.8132 110.519 26.3622C110.359 26.1367 110.178 25.8969 109.967 25.6427C109.704 25.3171 108.939 24.4694 108.071 23.8092C106.375 22.4082 102.916 20.9396 99.4947 21.3538C96.0733 21.7154 93.8032 23.34 92.5856 24.4547C90.1921 26.813 90.0016 27.9317 89.5925 28.7244C89.496 28.9562 89.4336 29.121 89.3728 29.2882C89.255 29.6144 89.176 29.8703 89.1119 30.0909C88.9858 30.5291 88.9179 30.8322 88.8612 31.0968C88.7973 31.4035 88.788 31.4645 88.7643 31.5925C88.7433 31.7085 88.7248 31.8178 88.7075 31.9234C88.6732 32.1344 88.6441 32.3314 88.6171 32.5272C88.5928 32.7042 88.58 32.8033 88.5625 32.9423C88.5295 33.2057 88.4985 33.4746 88.4679 33.7579C88.3927 34.5483 88.0224 35.9581 87.3001 37.8454C86.5357 39.9239 85.3484 42.4441 84.2326 46.1511C83.1711 49.6682 82.0535 55.8363 84.6564 61.9358C87.5921 68.5652 92.2847 71.03 92.656 71.6587C92.8375 71.7952 92.3706 71.552 91.6417 70.1146C90.3131 67.0069 90.6504 65.6887 91.0165 63.9723C91.4474 62.3769 92.6309 60.1855 95.1035 58.7008C95.9734 58.1967 96.2659 58.1551 96.2902 58.1374C96.311 58.1325 96.0736 58.1984 95.7251 58.2751C94.6634 58.5156 92.7445 58.8577 90.6326 59.455C86.5043 60.5421 81.0652 63.2168 77.3993 67.4312C74.0706 71.2612 72.325 74.916 71.129 79.2751C69.7804 84.2858 69.8937 90.2754 71.91 95.505C73.0799 98.559 74.5677 101.898 77.3188 105.389C80.1184 109.072 85.4995 113.102 91.5589 113.934C94.4445 114.378 97.5231 114.727 101.097 114.625C104.929 114.448 109.755 113.991 115.043 110.531C116.968 109.111 120.258 106.974 121.913 101.113C123.444 94.9554 120.566 90.0328 118.963 88.002C118.541 87.4511 118.134 86.9809 117.763 86.5779C114.829 83.5186 112.662 82.1834 110.208 80.6643C108.298 79.5433 106.453 78.554 103.819 77.5882C101.95 76.9488 99.6401 76.2008 96.1297 76.2713C92.6341 76.2279 88.0879 78.196 86.0178 80.0037C85.9473 80.0592 85.8782 80.1143 85.8106 80.169C82.182 83.092 79.2827 87.5323 78.5571 92.8708C78.4832 93.4132 78.4342 93.9447 78.4061 94.4673C78.3014 99.1146 78.9799 103.101 82.6217 107.902C82.7778 108.094 82.9358 108.28 83.1016 108.467C86.845 112.801 92.6029 114.465 96.6815 114.359C97.3107 114.356 97.9782 114.33 98.6909 114.266C101.711 114.001 106.648 112.897 110.522 108.602C110.686 108.419 110.86 108.226 111.039 108.024C112.346 106.554 113.9 104.767 115.42 102.468C117.408 99.4199 119.736 94.9636 119.714 89.0561C119.661 86.2646 119.158 83.6332 117.593 80.6461C116.132 77.7816 112.624 73.9722 107.614 72.8371C107.495 72.8089 107.376 72.7821 107.257 72.7568C103.623 71.9741 99.8301 72.0726 96.4558 72.8237C92.6074 73.673 89.2679 75.2629 86.3995 77.1715C84.298 78.5718 82.3 80.1678 80.4605 81.9285C78.1282 84.1582 76.0563 86.6505 74.2971 89.2915C72.9762 91.2762 71.7193 93.4866 70.6805 96.0369C68.5628 101.013 67.4181 108.564 70.2477 115.36C71.2239 117.784 72.5128 120.203 74.2815 122.532C77.4155 126.786 82.8304 130.747 88.8134 131.959C90.3209 132.287 91.9206 132.642 93.6045 132.985C97.6148 133.77 102.011 134.64 107.612 134.461C112.92 134.401 121.394 132.162 126.408 125.74C127.517 124.382 128.623 122.947 129.683 121.456C135.61 113.086 141.998 100.551 137.986 86.1485C137.586 84.7551 137.121 83.1268 136.448 81.2897C135.149 77.6253 132.551 72.7083 128.378 69.214C127.408 68.3836 126.282 67.4094 125.036 66.41C120.448 62.7717 113.197 57.6677 103.187 58.1716C101.899 58.2448 100.577 58.3272 99.218 58.4326C94.7944 58.8073 89.9765 59.2439 84.3381 61.128C78.8451 62.8414 71.6916 67.5212 68.3604 74.3226C67.9049 75.1971 67.4136 76.1034 66.8949 77.0464C64.4256 82.0449 60.1971 86.986 58.8637 97.6602C58.7634 98.9253 58.705 100.196 58.6899 101.471C58.6573 108.07 59.6704 114.612 62.7302 121.48C63.1182 122.316 63.528 123.19 63.9651 124.088C67.6505 132.701 77.3997 144.461 89.9721 146.742C90.8017 146.93 91.6474 147.11 92.4878 147.278C104.867 149.208 119.701 151.96 134.647 139.904C135.146 139.45 135.638 138.99 136.125 138.523C141.72 132.959 146.966 127.319 150.61 117.747C150.73 117.391 150.873 116.981 151.025 116.539C153.431 110.546 154.855 99.7297 150.787 91.6863C150.621 91.3311 150.456 90.9841 150.285 90.6297C146.896 83.9908 143.455 77.3099 135.475 71.0393C135.29 70.9093 135.105 70.7793 134.917 70.6491C132.834 69.2057 130.533 67.7525 127.869 66.4875C124.416 64.8393 120.146 63.5262 115.648 63.5718C115.562 63.5753 115.475 63.5786 115.387 63.5818C112.761 63.6842 109.81 63.7262 106.389 64.0792C103.16 64.6393 98.2269 64.456 93.5759 69.8973C93.5323 69.9544 93.4891 70.0113 93.446 70.068C92.413 71.4309 91.4249 72.8738 90.5101 74.4982C90.0515 75.3175 89.6117 76.1744 89.192 77.1803C88.9824 77.6873 88.7782 78.2247 88.581 78.8884C88.3982 79.592 88.1536 80.2042 88.1123 81.8687Z" fill="#25C5C5"/>
<path d="M84.1228 116.469C82.1183 115.584 79.8443 115.532 77.8012 116.324C75.7581 117.115 74.1131 118.686 73.2282 120.691C72.3432 122.695 72.2908 124.969 73.0825 127.012C73.8741 129.055 75.445 130.7 77.4495 131.585C77.4495 131.585 77.4495 131.585 77.4495 131.585C77.6058 131.649 78.0416 131.902 78.5197 132.293C81.7963 134.964 85.1024 140.864 86.5744 146.366L86.2794 144.061C86.2792 144.071 86.2791 144.081 86.2789 144.091C86.0853 156.563 85.9008 168.389 83.6343 180.181C83.6339 180.184 83.6334 180.187 83.6329 180.189L83.7924 179.52C83.5265 180.52 84.1159 180.943 84.7977 181.57C85.5368 182.214 86.0456 183.473 85.8038 184.626C85.6229 185.164 85.6451 185.937 85.7542 186.629C85.8698 187.329 86.0631 187.891 86.4028 188.338C86.7426 188.784 87.2329 189.12 87.8772 189.418C88.5151 189.707 89.2543 189.935 89.8212 189.904C89.8212 189.904 89.8212 189.904 89.8212 189.904C91.4248 189.657 93.5878 189.235 95.498 187.874C97.3012 186.613 98.5458 184.922 98.8766 183.82L99.0361 183.151C99.0367 183.148 99.0372 183.145 99.0378 183.142C101.86 170.312 102.615 156.954 102.801 144.322C102.801 144.311 102.801 144.301 102.801 144.29L102.506 141.984C100.056 133.745 96.6365 126.162 88.9161 119.451C87.5909 118.385 86.0793 117.341 84.1228 116.469Z" fill="#25C5C5"/>
<path d="M106.694 126.065C105.371 124.318 103.408 123.169 101.238 122.869C99.0669 122.57 96.8663 123.145 95.1198 124.468C93.3732 125.791 92.2238 127.754 91.9244 129.925C91.625 132.095 92.2002 134.296 93.5233 136.042C93.5233 136.042 93.5233 136.042 93.5233 136.042C92.5017 134.554 92.7088 134.322 92.6549 134.31C92.7713 134.691 92.6385 137.307 92.2283 139.37C91.8303 141.555 91.2398 143.827 90.5231 145.981C90.5157 146.003 90.5083 146.025 90.5009 146.047C89.0288 150.448 87.8785 155.1 87.1173 159.751L87.0441 160.256C87.043 160.267 87.0419 160.277 87.0409 160.288C86.7711 162.993 86.8413 165.413 86.9151 167.683C86.9386 168.369 86.9646 169.04 86.9873 169.699C87.0575 171.711 87.9462 173.64 89.4175 175.063C90.8911 176.485 92.8267 177.285 94.8389 177.285C96.851 177.285 98.7866 176.485 100.26 175.063C101.731 173.64 102.62 171.711 102.69 169.699C102.713 169.04 102.739 168.394 102.769 167.762C102.868 165.676 103.017 163.731 103.228 162.104C103.229 162.097 103.23 162.091 103.231 162.085L103.158 162.59C103.891 158.75 104.919 155.038 106.179 151.263C106.186 151.244 106.192 151.225 106.199 151.206C107.962 145.112 109.808 140.507 108.932 131.466C108.644 130.158 108.501 128.614 106.694 126.065Z" fill="#25C5C5"/>
<path d="M90.3901 159.159C90.3901 160.805 91.0439 162.383 92.2076 163.547C93.3712 164.71 94.9495 165.364 96.5952 165.364C98.2409 165.364 99.8192 164.71 100.983 163.547C102.147 162.383 102.8 160.805 102.8 159.159C102.792 159.74 102.727 159.901 102.712 159.986C102.692 160.063 102.697 160.035 102.72 159.974C103.027 159.133 104.179 157.198 105.254 155.601C105.255 155.599 105.256 155.597 105.257 155.596C107.172 152.721 109.946 150.566 112.85 148.395L113.111 148.188C113.112 148.188 113.113 148.187 113.114 148.186C114.908 146.691 116.364 145.13 117.665 143.58C117.973 143.213 118.271 142.847 118.561 142.48C119.534 141.25 120.109 139.712 120.075 138.121C120.042 136.531 119.415 135.029 118.314 133.927C117.212 132.826 115.71 132.199 114.12 132.166C112.529 132.132 110.991 132.707 109.761 133.68C109.761 133.68 109.761 133.68 109.761 133.68C109.395 133.97 109.036 134.26 108.685 134.548C107.201 135.764 105.844 136.949 104.62 137.965C104.62 137.966 104.619 137.966 104.619 137.967L104.88 137.76C101.017 140.645 97.7019 144.533 94.9333 148.709C94.9315 148.712 94.9297 148.714 94.9279 148.717C93.6273 150.74 92.3828 152.445 91.0899 155.643C90.8329 156.439 90.4566 157.136 90.3901 159.159Z" fill="#25C5C5"/>
<path d="M81.606 188.201C82.7862 189.381 84.3868 190.044 86.0558 190.044C87.7248 190.044 89.3255 189.381 90.5056 188.201C91.6858 187.021 92.3488 185.42 92.3488 183.751C92.3488 182.082 91.6858 180.482 90.5056 179.302C90.5056 179.302 90.5056 179.302 90.5056 179.302C90.3828 179.18 90.3227 179.115 90.3538 179.149C90.3853 179.191 90.5153 179.302 90.7998 179.773C91.0492 180.215 91.6334 181.284 91.5058 182.991C91.367 184.715 90.4495 185.921 89.9841 186.385C89.9392 186.432 89.8959 186.475 89.854 186.515C89.379 186.957 89.17 187.055 89.0283 187.146C88.777 187.29 88.776 187.282 88.8085 187.291C88.8476 187.293 88.9451 187.285 89.059 187.284C89.2902 187.281 89.5862 187.302 89.8604 187.351C89.8655 187.352 89.8707 187.353 89.8759 187.354C90.257 187.42 90.662 187.623 90.6752 187.767C90.6795 187.832 90.5757 187.882 90.2853 187.77C90.0064 187.66 89.487 187.343 89.0006 186.647C88.9846 186.624 88.9689 186.601 88.9535 186.577C88.0463 185.097 88.2135 184.329 88.1643 184.059C88.168 183.758 88.1115 183.72 88.3014 183.421C88.3061 183.415 88.3107 183.408 88.3155 183.401C88.5274 183.115 88.9118 182.723 89.6525 182.436C90.3678 182.145 91.5722 182.046 92.6464 182.473C92.6654 182.48 92.6843 182.488 92.7029 182.495C93.8284 182.976 94.1727 183.471 94.4456 183.867C94.6951 184.278 94.874 184.71 94.8963 185.458C94.8964 185.47 94.8965 185.481 94.8966 185.493C94.8875 186.409 94.6405 186.747 94.7042 186.701C94.7472 186.665 94.9997 186.371 95.3756 186.056C95.3793 186.053 95.3829 186.05 95.3865 186.047C95.7472 185.737 96.2006 185.678 96.3097 185.881C96.4347 186.058 96.0568 186.617 94.9004 186.736C94.8929 186.736 94.8855 186.737 94.8781 186.738C93.8248 186.81 93.0961 186.613 92.4448 186.281C91.8084 185.922 91.1025 185.431 90.475 184.001C90.4717 183.993 90.4685 183.985 90.4652 183.977C90.0809 183.204 89.7138 180.873 90.4691 179.099C91.1792 177.349 92.087 176.785 92.4738 176.642C93.3045 176.415 93.1189 177.223 92.8463 178.035C92.5713 178.81 92.1396 179.752 91.6515 180.823C91.1167 181.836 90.6088 182.823 90.3006 183.769C89.9939 184.719 89.925 185.591 90.1711 186.397C90.4171 187.203 90.9616 187.888 91.7468 188.504C92.5305 189.116 93.5035 189.652 94.5129 190.193C94.5129 190.193 94.5129 190.193 94.5129 190.193C95.7439 190.738 96.9915 191.106 98.3721 191.187C99.9018 191.232 101.518 191.161 103.845 189.649C104.964 188.866 106.54 187.517 107.564 184.831C108.646 182.118 108.155 178.747 107.391 177.068C107.384 177.052 107.377 177.036 107.371 177.02C104.596 171.212 100.276 169.135 94.7832 169.066C94.7637 169.067 94.7441 169.067 94.7246 169.068C88.3959 169.63 86.3293 173.124 84.3363 175.022C84.3265 175.032 84.3167 175.043 84.307 175.053C82.5276 177.151 79.8213 179.699 79.5685 185.501C79.5686 185.537 79.5688 185.574 79.5692 185.611C79.8498 190.45 81.7551 194.249 86.9892 196.693C87.0339 196.711 87.0788 196.729 87.124 196.746C92.6303 198.86 97.8688 195.981 100.151 192.919C100.179 192.883 100.207 192.848 100.234 192.812C102.521 189.284 104.548 185.73 101.318 179.214C101.286 179.164 101.254 179.114 101.222 179.064C99.1025 175.986 96.5973 175.197 94.8263 174.715C92.9816 174.274 91.4315 174.236 89.8678 174.299C89.8467 174.3 89.8257 174.301 89.8046 174.302C87.5883 174.495 85.9059 174.606 82.842 176.175C82.3916 176.441 81.8803 176.738 81.146 177.428C81.0816 177.489 81.0165 177.554 80.9507 177.622C80.2414 178.335 79.1308 179.856 78.9644 181.933C78.8062 183.992 79.5204 185.404 79.9458 186.145C80.8745 187.621 81.3521 187.907 81.606 188.201Z" fill="#25C5C5"/>
<path d="M121.671 125.131C119.634 125.468 117.815 126.601 116.614 128.28C115.412 129.959 114.927 132.047 115.265 134.084C115.603 136.12 116.736 137.939 118.415 139.141C120.094 140.342 122.181 140.827 124.218 140.489C124.218 140.489 124.218 140.489 124.218 140.489C125.388 140.29 126.229 140.091 127.052 139.909C132.445 138.634 136.893 138.05 141.473 138.502L141.036 138.447C141.047 138.448 141.059 138.45 141.07 138.452C146.952 139.366 152.36 141.941 156.94 144.997C156.945 145.001 156.951 145.005 156.956 145.008C158.681 146.146 160.156 146.82 162.118 147.563C162.864 147.838 163.647 148.095 164.472 148.332C165.925 148.766 167.473 148.996 168.962 148.746C170.452 148.497 171.755 147.797 172.658 146.711C173.56 145.626 174.012 144.217 173.986 142.707C173.959 141.197 173.451 139.717 172.76 138.367C172.76 138.367 172.76 138.367 172.76 138.367C172.319 137.552 171.839 136.775 171.303 136.03C169.965 134.13 168.012 132.322 166.203 131.138C166.197 131.134 166.192 131.131 166.187 131.127C159.218 126.505 151.272 124.288 143.472 123.07C143.457 123.068 143.442 123.065 143.427 123.063L142.991 123.008C136.234 122.294 129.281 123.368 123.646 124.718C122.871 124.892 122.107 125.059 121.671 125.131Z" fill="#25C5C5"/>
<path d="M146.185 92.6413C145.781 90.2045 144.425 88.028 142.417 86.5906C140.408 85.1533 137.91 84.5728 135.473 84.9769C133.037 85.381 130.86 86.7366 129.423 88.7454C127.985 90.7542 127.405 93.2517 127.809 95.6886C127.809 95.6886 127.809 95.6886 127.809 95.6886C128.21 97.9399 128.72 99.2746 129.218 100.638C131.693 106.904 134.517 111.668 137.577 116.643C137.578 116.646 137.58 116.65 137.582 116.653C143.08 125.36 149.835 132.464 157.328 138.254L158.892 139.236C158.893 139.237 158.895 139.237 158.896 139.238C163.055 141.335 167.283 142.41 170.98 143.196C170.98 143.196 170.981 143.197 170.982 143.197C172.84 143.558 175.128 142.046 177.934 140.738C179.407 140.019 180.909 139.31 182.312 138.883C182.447 138.841 182.611 138.723 182.746 138.604C182.883 138.482 182.979 138.37 183.035 138.243C183.092 138.115 183.111 137.968 183.109 137.786C183.107 137.606 183.084 137.405 183.025 137.276C183.025 137.276 183.025 137.276 183.025 137.276C182.393 135.947 181.881 134.357 181.314 132.772C180.331 129.853 178.795 126.827 176.741 125.92C176.74 125.92 176.739 125.92 176.739 125.919C173.279 124.328 170.333 122.97 167.749 121.66C167.748 121.659 167.748 121.659 167.747 121.659L169.311 122.641C163.097 117.87 157.136 112.768 153.373 106.772C153.371 106.77 153.37 106.768 153.369 106.766C150.734 102.54 148.125 97.8779 146.641 94.0512C146.364 93.344 146.158 92.5632 146.185 92.6413Z" fill="#25C5C5"/>
<path d="M161.689 146.764C163.06 148.135 164.92 148.906 166.859 148.906C168.799 148.906 170.659 148.135 172.03 146.764C173.402 145.393 174.172 143.533 174.172 141.593C174.172 139.654 173.402 137.794 172.03 136.422C172.03 136.422 172.03 136.422 172.03 136.422C171.817 136.23 171.801 136.114 172.293 136.798C172.523 137.166 172.997 137.819 173.261 139.273C173.569 140.713 173.061 142.851 172.359 143.858C172.058 144.342 171.767 144.681 171.519 144.937C171.466 144.992 171.414 145.043 171.364 145.091C170.797 145.621 170.543 145.744 170.363 145.862C170.189 145.967 170.105 146.01 170.054 146.043C169.958 146.104 169.99 146.117 170.039 146.139C170.145 146.176 170.338 146.236 170.384 146.305C170.385 146.306 170.385 146.308 170.386 146.309C170.411 146.372 170.419 146.549 170.003 146.535C169.661 146.488 168.418 146.321 167.196 144.174C167.177 144.137 167.158 144.1 167.139 144.062C166.127 141.841 166.599 140.553 166.768 139.968C166.999 139.346 167.202 139.094 167.505 138.776C167.511 138.77 167.517 138.764 167.523 138.758C167.91 138.38 168.248 138.234 168.411 138.181C168.581 138.128 168.608 138.144 168.602 138.142C168.602 138.142 168.602 138.142 168.603 138.142C168.622 138.148 168.777 138.094 169.291 138.272C169.777 138.427 170.717 139.036 171.251 139.939C171.255 139.944 171.258 139.95 171.261 139.955C171.868 141.027 171.317 141.5 170.881 141.577C170.411 141.675 169.997 141.421 169.961 141.511C169.961 141.511 169.961 141.511 169.961 141.511C169.825 141.74 169.993 141.396 170.83 140.805C171.19 140.543 171.643 140.238 172.165 139.891C173.577 138.949 174.557 137.486 174.89 135.822C175.223 134.158 174.881 132.43 173.94 131.018C172.999 129.606 171.535 128.625 169.871 128.293C168.207 127.96 166.479 128.302 165.067 129.243C165.067 129.243 165.067 129.243 165.067 129.243C164.544 129.592 163.953 129.983 163.296 130.461C161.873 131.515 159.856 133.093 158.475 135.869C158.473 135.872 158.472 135.876 158.47 135.879C156.955 139.404 154.303 142.877 157.207 148.51C157.216 148.524 157.224 148.538 157.233 148.552C160.36 153.508 165.489 154.427 168.632 154.407C168.649 154.407 168.666 154.407 168.683 154.407C172 154.364 175.785 153.469 179.048 150.302C179.074 150.276 179.1 150.251 179.125 150.225C181.437 147.403 184.559 144.3 181.81 136.824C181.78 136.763 181.749 136.702 181.717 136.641C179.77 133.106 177.101 132.086 175.321 131.527C173.447 131.001 171.903 130.967 170.387 131.028C170.36 131.029 170.334 131.03 170.308 131.032C168.93 131.109 167.701 131.353 166.424 131.736C165.782 131.932 165.134 132.159 164.379 132.495C163.592 132.891 162.851 133.092 161.242 134.535C161.17 134.604 161.097 134.677 161.023 134.754C160.674 135.114 160.294 135.562 159.918 136.168C159.048 137.44 158.467 139.904 158.831 141.654C159.146 143.419 159.77 144.357 160.174 144.985C161.022 146.188 161.46 146.511 161.689 146.764Z" fill="#25C5C5"/>
<path d="M85.5236 95.5183C86.8143 93.7959 87.3679 91.6314 87.0627 89.5008C86.7574 87.3703 85.6184 85.4483 83.896 84.1576C82.1736 82.8669 80.0091 82.3133 77.8786 82.6185C75.748 82.9238 73.826 84.0628 72.5353 85.7852C72.5353 85.7852 72.5353 85.7852 72.5353 85.7852C72.0583 86.4218 71.5532 87.0574 71.0257 87.689C66.2485 93.3607 60.0162 98.602 53.5312 102.878L54.8434 102.181C54.8425 102.181 54.8416 102.182 54.8406 102.182C51.4682 103.604 48.2159 104.172 44.7032 104.828L45.4135 104.725C45.4132 104.725 45.4128 104.725 45.4125 104.725C42.0273 105.036 37.1379 106.694 32.706 110.185C31.7546 110.916 30.8017 111.724 29.8447 112.609C29.6959 112.749 29.5532 112.889 29.448 113.035C29.3428 113.183 29.2837 113.333 29.2837 113.488C29.2837 113.642 29.3428 113.792 29.448 113.94C29.5532 114.086 29.6959 114.226 29.8447 114.366C30.8018 115.251 31.7547 116.059 32.7087 116.789C37.3177 120.218 41.5095 122.126 47.1401 121.653C47.1407 121.653 47.1413 121.653 47.1419 121.653L47.8522 121.55C52.3655 120.723 56.9667 118.918 61.1065 117.154C61.1076 117.154 61.1087 117.153 61.1099 117.153L62.4221 116.456C70.1773 111.31 77.215 105.485 83.4827 98.0933C84.1773 97.2616 84.8586 96.4055 85.5236 95.5183Z" fill="#25C5C5"/>
<path d="M40.888 114.266C41.5604 112.269 41.4119 110.087 40.4752 108.199C39.5385 106.312 37.8903 104.873 35.8933 104.201C33.8962 103.529 31.7138 103.677 29.8262 104.614C27.9386 105.55 26.5005 107.199 25.8281 109.196C25.8281 109.196 25.8281 109.196 25.8281 109.196C23.875 116.618 26.2629 120.661 28.4725 124.647C29.3182 125.983 30.2945 127.268 31.5827 128.534C31.7513 128.699 31.9272 128.865 32.1063 129.027C35.5185 132.488 41.995 133.448 45.5881 132.434C49.4015 131.58 51.9908 130.132 54.3649 128.784C58.9624 126.088 62.8362 123.046 65.7654 121.477C65.7941 121.462 65.8231 121.448 65.8522 121.436C65.215 121.844 64.9251 122.206 64.6952 122.555C64.5773 122.725 64.4788 122.884 64.3173 122.989C64.2342 123.041 64.1378 123.08 63.9736 123.086C63.7861 123.081 63.6425 123.099 62.9455 122.865C62.7665 122.801 62.5621 122.729 62.1697 122.547C62.0747 122.502 61.9722 122.452 61.8601 122.394C61.7285 122.326 61.5811 122.246 61.4172 122.15C61.1279 121.977 60.6006 121.659 59.9285 121.062C59.6038 120.742 59.1493 120.418 58.3698 119.059C57.6119 117.923 56.733 114.372 57.8987 111.665C58.9815 109.033 60.2698 108.256 60.8128 107.811C61.4616 107.357 61.7242 107.263 61.9164 107.174C62.2418 107.043 62.1365 107.106 61.9668 107.15C61.7792 107.203 61.485 107.27 61.1584 107.332C59.7938 107.592 57.9515 107.78 56.125 107.893C52.505 108.114 48.3092 108.105 45.3213 107.74C45.3798 107.755 45.4551 107.776 45.5615 107.816C45.854 107.93 46.7102 108.283 47.4724 109.499C47.7667 109.983 47.9121 110.364 48.0065 110.667C48.1873 111.29 48.2326 111.608 48.2537 112.028C48.252 112.446 48.2607 112.963 47.7397 113.951C47.7277 113.995 47.7081 114.04 47.6821 114.077C47.6026 114.196 47.5221 114.26 47.569 114.23C47.6126 114.202 47.7845 114.096 48.0905 113.969C48.7015 113.708 49.8089 113.403 51.1451 113.184C53.9469 112.673 57.0221 112.733 62.1914 111.842C61.1147 112.042 59.4755 112.261 57.1962 111.481C54.9152 110.733 52.9484 108.751 52.1884 107.332C50.7035 104.483 51.0227 103.518 50.936 102.771C50.9469 101.819 51.0415 101.468 51.0967 101.168C51.1566 100.888 51.2052 100.728 51.2449 100.602C51.3237 100.358 51.3699 100.254 51.4199 100.143C51.5406 99.9217 51.555 99.7545 52.2161 99.0376C52.3777 98.8683 52.5345 98.7263 52.7058 98.5908C53.1085 98.2978 53.4449 97.9945 54.6041 97.634C55.2074 97.4785 56.0515 97.2378 57.694 97.4338C59.2419 97.5533 62.1884 98.8376 63.6782 101.088C63.7403 101.165 63.8096 101.262 63.879 101.379C64.1696 101.839 64.4881 102.782 64.4942 103.609C64.515 104.443 64.3223 104.987 64.2616 105.155C64.1059 105.488 64.5144 104.805 65.2555 104.133C65.9957 103.428 67.0177 102.611 68.1776 101.785C68.7607 101.369 69.3765 100.949 70.0611 100.491C70.4115 100.256 70.7565 100.028 71.1802 99.7402C71.6393 99.4142 71.915 99.2852 73.0551 98.3451C72.2651 99.0214 71.103 99.8334 69.3558 100.341C67.6176 100.87 65.4462 100.804 63.9418 100.344C60.86 99.3496 60.0457 98.1372 59.4102 97.5275C58.3094 96.2297 58.2429 95.8339 58.0562 95.4959C57.7686 94.8409 57.7635 94.8141 57.6809 94.6979C57.6152 94.598 57.5376 94.5407 57.4871 94.1904C57.4454 94.3981 57.408 94.6151 57.3931 94.8497C57.4844 98.4398 53.4552 105.841 53.6271 116.456L55.0567 121.388C55.6066 122.33 56.3256 123.285 57.1424 124.112C60.0231 126.965 62.8839 127.659 64.6331 128.027C66.4652 128.368 67.7778 128.37 68.9921 128.37C69.2492 128.368 69.5108 128.365 69.7748 128.361C72.605 128.315 75.3314 127.941 77.833 127.415C81.3505 126.672 84.5574 125.657 87.6615 124.579C89.3648 123.965 90.8334 122.597 91.7739 120.918C92.7127 119.229 93.0463 117.367 92.6719 115.599C92.2974 113.832 91.237 112.264 89.6943 111.102C88.1534 109.948 86.2565 109.293 84.4505 109.423C84.4505 109.423 84.4505 109.423 84.4505 109.423C81.5927 109.604 78.7838 109.63 76.228 109.435C74.397 109.296 72.766 109.037 71.2633 108.659C71.1196 108.624 70.9767 108.586 70.8336 108.547C70.1601 108.369 69.5923 108.141 69.5846 108.031C69.5865 107.984 69.7523 107.967 70.188 108.135C70.6094 108.297 71.3602 108.709 72.0662 109.429C72.4851 109.852 72.8595 110.352 73.1228 110.805L74.5523 115.736C74.1238 112.154 77.2332 106.604 78.3275 96.1803C78.3708 95.4988 78.3622 94.7985 78.3159 94.0868C78.1245 91.4411 77.8213 90.0978 76.6075 87.1605C76.2406 86.4259 75.9664 85.6351 74.578 84.0095C73.7982 83.2394 72.8119 81.8748 69.5177 80.8175C67.9086 80.3274 65.6237 80.2598 63.7804 80.8191C61.9282 81.3569 60.6736 82.2252 59.7969 82.9761C60.0807 82.7409 60.0227 82.8039 59.9489 82.8585C59.8779 82.9143 59.7329 83.0208 59.5932 83.1219C59.2883 83.3421 58.9402 83.5881 58.5635 83.856C57.8167 84.3867 57.0168 84.9627 56.2047 85.5772C54.5755 86.8135 52.8863 88.1847 51.1584 89.9238C49.4539 91.6928 47.5785 93.7261 46.022 97.245C44.3496 100.543 44.1036 107.046 46.6651 111.029C46.9426 111.518 47.2453 111.985 47.5677 112.431C49.3697 115.138 52.8457 116.689 54.9334 116.879C57.1184 117.151 58.5188 116.834 59.6473 116.539C61.8643 115.891 63.1753 115.048 64.4506 114.098C65.0165 113.664 65.5469 113.195 66.0562 112.673C67.5268 111.125 68.1708 109.965 68.8069 108.707C69.1125 108.076 69.3843 107.434 69.644 106.641C69.8854 105.766 70.2195 105.126 70.2896 102.772C70.2014 101.815 70.5011 100.632 68.9129 97.5996C68.1001 96.089 66.0525 94.0315 63.6724 93.2487C61.2927 92.4343 59.5499 92.6557 58.3644 92.8771C56.415 93.2979 52.1868 93.4549 47.8519 94.2165C43.6124 95.0906 37.3493 96.1816 32.2886 102.689C31.9089 103.205 31.5694 103.734 31.255 104.294C28.9203 108.85 29.1116 112.089 30.1703 116.138C30.4749 117.126 30.9056 118.173 31.575 119.268C33.7438 122.784 36.9826 124.698 39.8127 125.626C40.7258 125.925 41.6299 126.137 42.5267 126.279C47.8496 127.056 52.1179 127.163 56.8886 127.096C59.2679 127.034 61.6241 126.92 64.4119 126.488C65.8585 126.227 67.2413 126.059 69.724 125.039C70.4291 124.723 71.1226 124.408 72.2184 123.636C73.1657 122.9 74.8686 121.731 76.1379 118.606C77.5008 115.411 76.5166 111.293 75.5054 109.709C74.4599 107.877 73.6822 107.206 72.9235 106.492C72.2223 105.87 71.6494 105.521 71.3249 105.327C71.1417 105.219 70.9734 105.128 70.8197 105.048C70.6888 104.981 70.5665 104.921 70.4508 104.867C70.2134 104.756 70.0283 104.679 69.8651 104.613C69.6989 104.547 69.5436 104.49 69.4199 104.446C67.4688 103.815 66.7957 103.9 65.7987 103.91C64.8747 103.956 64.0104 104.117 63.1306 104.353C61.3813 104.833 59.5754 105.577 57.602 106.734C57.5474 106.768 57.4923 106.802 57.4369 106.835C52.4213 109.912 49.2199 112.837 45.9456 114.899C44.3893 115.915 42.8485 116.649 42.1654 116.808C41.8279 116.9 41.8195 116.848 42.0993 116.913C42.3747 116.965 42.7544 117.209 42.7604 117.236C42.7408 117.219 42.7177 117.197 42.6923 117.172C42.4932 116.981 42.1854 116.606 41.9215 116.183C41.5278 115.564 41.2071 114.812 41.0776 114.285C40.9147 113.763 41.1008 113.488 40.888 114.266Z" fill="#25C5C5"/>
<path d="M108.758 46.7346C106.429 46.7699 104.208 47.7293 102.585 49.4018C100.963 51.0743 100.071 53.3228 100.106 55.6528C100.142 57.9828 101.101 60.2033 102.774 61.8258C104.446 63.4484 106.695 64.3401 109.025 64.3048C109.025 64.3048 109.025 64.3048 109.025 64.3048C108.012 64.3182 107.215 64.1602 106.603 63.9883C106.063 63.8324 105.724 63.6898 105.41 63.5462C105.089 63.3963 104.908 63.2931 104.743 63.197C104.58 63.1008 104.448 63.0146 104.336 62.9385C103.957 62.6747 103.834 62.5545 103.756 62.4871C103.624 62.3642 103.697 62.4277 103.776 62.5172C103.956 62.7152 104.257 63.0755 104.558 63.4552C107.038 66.6275 109.799 70.6487 112.635 74.4748C112.673 74.5258 112.71 74.5765 112.749 74.627C118.478 81.7857 125.399 83.0085 129.719 83.988L131.967 84.1181C132.006 84.1159 132.045 84.1136 132.083 84.1112C142.724 83.7356 155.804 80.1108 164.824 73.8413L165.871 73.0859C165.88 73.0786 165.888 73.0712 165.897 73.0639C168.167 71.1024 167.623 68.1251 168.164 64.5552C168.363 62.8829 168.627 61.2039 169.105 59.7634C169.149 59.6253 169.145 59.4221 169.121 59.2415C169.096 59.0584 169.053 58.9128 168.973 58.7937C168.894 58.6747 168.776 58.5795 168.616 58.4861C168.458 58.3952 168.272 58.3136 168.127 58.3023C168.127 58.3023 168.127 58.3023 168.127 58.3023C166.6 58.2036 164.905 57.874 163.153 57.609C159.622 56.9343 155.266 57.1812 153.758 58.4757C153.752 58.4798 153.747 58.484 153.742 58.4881L154.789 57.7327C147.134 62.6865 140.227 64.392 130.916 64.9632C130.884 64.9652 130.852 64.9671 130.82 64.9692L133.068 65.0993C131.095 64.7601 129.357 64.5818 128.232 64.3738C127.069 64.1523 126.805 64.0715 126.775 64.0414C126.774 64.0402 126.773 64.039 126.772 64.0378C124.054 60.3811 121.568 56.7001 118.315 52.5219C117.871 51.9653 117.411 51.3969 116.784 50.7028C116.473 50.3635 116.11 49.97 115.543 49.4542C115.388 49.3142 115.224 49.1716 115.033 49.0157C114.813 48.8365 114.575 48.653 114.266 48.4407C113.879 48.1832 113.575 47.9725 112.8 47.6035C112.413 47.4266 112.012 47.2597 111.401 47.0835C110.71 46.889 109.839 46.7202 108.758 46.7346Z" fill="#25C5C5"/>
<path d="M148.449 93.2531C146.809 91.6137 144.586 90.6926 142.267 90.6926C139.949 90.6926 137.725 91.6137 136.085 93.2531C134.446 94.8926 133.525 97.1162 133.525 99.4348C133.525 101.753 134.446 103.977 136.085 105.616C136.085 105.616 136.085 105.616 136.085 105.616C136.203 105.733 136.385 105.92 136.708 106.217C137.055 106.518 137.435 106.922 138.582 107.616C139.179 107.949 139.997 108.427 141.583 108.75C143.086 109.105 145.871 108.899 147.795 107.719C151.569 105.205 151.51 103.481 151.984 102.599C151.992 102.576 152 102.553 152.008 102.53C152.029 102.47 152.05 102.411 152.07 102.351C154.703 94.4589 157.329 88.5649 161.003 83.5842L160.518 84.2023C160.526 84.1927 160.534 84.1831 160.542 84.1735C162.024 82.4498 163.745 80.4343 165.353 78.7439C165.357 78.7394 165.362 78.7348 165.366 78.7303C166.605 77.4052 168.353 75.4832 170.038 73.5092C170.553 72.9093 171.058 72.3158 171.573 71.7267C172.661 70.4525 173.223 68.6515 173.239 66.8457C173.25 65.0327 172.715 63.3631 171.646 62.0784C170.578 60.7937 169.034 59.963 167.249 59.6431C165.47 59.3306 163.597 59.5548 162.146 60.3922C162.146 60.3922 162.146 60.3922 162.146 60.3922C161.53 60.743 160.913 61.0682 160.285 61.3889C158.25 62.4397 156.092 63.3283 153.686 65.1271C153.678 65.1328 153.671 65.1385 153.663 65.1442C150.914 67.2271 148.543 69.297 146.258 71.9371C146.245 71.9521 146.233 71.967 146.22 71.982L145.735 72.6001C140.042 80.355 137.872 89.7061 135.542 96.6473C135.524 96.7006 135.505 96.7539 135.487 96.807C135.48 96.8273 135.473 96.8477 135.466 96.868C135.832 96.2894 135.631 94.8816 139.121 92.538C140.905 91.4399 143.518 91.2527 144.863 91.5758C146.29 91.8678 146.958 92.2753 147.416 92.5275C148.283 93.0566 148.416 93.2474 148.524 93.3304C148.607 93.408 148.561 93.3663 148.449 93.2531Z" fill="#25C5C5"/>
<path d="M153.461 70.675C154.685 71.8991 156.345 72.5868 158.076 72.5868C159.808 72.5868 161.468 71.8991 162.692 70.675C163.916 69.4509 164.604 67.7906 164.604 66.0595C164.604 64.3283 163.916 62.6681 162.692 61.444C162.692 61.444 162.692 61.444 162.692 61.444C162.242 61 161.955 60.6835 161.949 60.6671C161.909 60.6358 162.361 61.0952 162.498 62.3018C162.537 62.6917 162.515 63.1121 162.448 63.4653C162.447 63.4685 162.446 63.4716 162.446 63.4748C162.379 63.8174 162.271 63.9164 162.455 63.7592C162.627 63.6124 163.037 63.3122 163.584 63.0201C164.69 62.4184 166.264 61.8446 167.952 61.3384C167.916 61.3549 167.88 61.3707 167.844 61.3857C166.838 61.7822 166.384 61.7402 166.312 61.8971C166.216 62.0209 166.38 62.2848 166.315 62.3287C166.297 62.3178 166.279 62.3064 166.261 62.2944C165.881 62.0544 165.509 61.5896 165.358 61.2708C165.196 60.9441 165.187 60.7922 165.177 60.8037C165.177 60.8032 165.177 60.8028 165.176 60.8026C165.333 60.696 164.323 63.1298 162.253 65.2549C162.272 65.2338 162.291 65.2129 162.31 65.1923C162.838 64.6119 163.467 64.3437 163.636 64.2943C163.827 64.2362 163.669 64.2855 163.332 64.2721C163.333 64.2717 163.334 64.2713 163.335 64.271C163.365 64.2628 163.429 64.2174 163.633 64.2437C163.829 64.2702 164.194 64.3909 164.594 64.7574C164.608 64.7695 164.621 64.7817 164.634 64.7941C165.463 65.5978 165.7 66.5889 165.588 67.4215C165.586 67.4325 165.585 67.4434 165.583 67.4541C165.504 67.9416 165.414 68.0601 165.418 68.0868C165.413 68.1105 165.48 68.0467 165.483 68.0485C165.483 68.0488 165.483 68.0491 165.482 68.0494C165.46 68.0668 165.276 68.1187 164.943 68.0886C164.619 68.0624 164.144 67.9138 163.848 67.6254C163.845 67.6227 163.842 67.62 163.839 67.6173C163.637 67.4614 162.97 67.0743 162.646 66.614C162.303 66.158 162.3 65.7721 162.482 65.6087C162.865 65.2713 163.741 65.6028 164.557 66.0844C165.595 66.7042 166.658 67.5945 167.583 68.5892C167.94 68.9868 168.558 69.2919 169.167 69.4741C169.785 69.6541 170.344 69.6963 170.854 69.5548C171.365 69.4133 171.823 69.0892 172.259 68.6171C172.688 68.147 173.06 67.5676 173.162 67.0429C173.162 67.0429 173.162 67.0429 173.162 67.0429C173.398 65.5607 173.699 64.0259 173.761 62.277C173.788 60.8663 173.747 59.3191 172.855 57.364C172.179 55.4669 169.033 52.7434 166.362 52.2133C166.343 52.2079 166.324 52.2026 166.304 52.1974C162.125 50.9912 157.503 52.4296 154.797 54.6866C154.774 54.7053 154.75 54.7241 154.727 54.7429C151.915 57.1168 149.714 59.9671 148.833 64.5967C148.824 64.6477 148.816 64.6988 148.808 64.7502C148.152 68.8803 149.427 73.4244 152.621 76.612C152.67 76.6615 152.72 76.7106 152.77 76.7594C156.048 79.8637 159.862 80.6981 163.22 80.7237C163.284 80.7237 163.349 80.7234 163.413 80.7227C166.13 80.6524 170.5 80.2803 174.243 76.4004C174.307 76.3317 174.371 76.2621 174.434 76.1916C177.258 72.7784 181.077 68.7088 181.418 60.945C181.418 60.8712 181.418 60.7971 181.417 60.7229C181.465 57.4198 179.969 52.7863 176.385 50.0458C176.302 49.9804 176.218 49.9161 176.134 49.8529C172.812 47.6998 169.253 45.9896 163.104 47.8355C162.996 47.8758 162.888 47.9181 162.781 47.9623C160.588 48.9635 158.34 50.1262 155.989 51.8631C153.769 53.6018 150.691 56.071 149.625 61.013C149.621 61.0362 149.617 61.0594 149.612 61.0827C149.465 61.867 149.422 62.7287 149.503 63.554C150.377 68.6549 152.729 69.6648 153.461 70.675Z" fill="#25C5C5"/>
<path d="M178.245 15.1834C179.66 15.8909 181.298 16.0073 182.799 15.507C184.299 15.0068 185.54 13.9308 186.247 12.5159C186.955 11.1009 187.071 9.46284 186.571 7.96205C186.071 6.46125 184.995 5.22066 183.58 4.51318C183.58 4.51318 183.58 4.51318 183.58 4.51318C183.242 4.34478 182.963 4.20249 182.831 4.12719C182.744 4.08576 182.701 4.01915 183.058 4.31023C183.238 4.48643 183.567 4.69469 184.112 5.62639C184.698 6.40733 185.133 9.09615 184.279 10.6052C184.19 10.7992 184.095 10.9737 184.001 11.1306C183.161 12.4083 182.751 12.523 182.51 12.7418C182.27 12.915 182.173 12.9806 182.116 13.0404C182.012 13.1502 182.075 13.2094 182.151 13.2878C182.315 13.436 182.569 13.6265 182.677 13.7592C182.678 13.7619 182.68 13.7646 182.682 13.7672C182.776 13.898 182.862 14.1133 182.448 14.126C182.235 14.1166 181.871 14.0682 181.229 13.6469C180.62 13.2542 179.58 12.2269 179.124 10.649C179.113 10.6086 179.101 10.5683 179.09 10.5282C178.661 8.83267 178.951 7.80173 179.131 7.16492C179.338 6.52072 179.549 6.16818 179.75 5.87273C180.152 5.3104 180.583 4.95158 181.284 4.69814C181.287 4.69683 181.291 4.69552 181.295 4.69422C181.73 4.55343 182.255 4.52582 183.103 4.78727C183.906 5.02705 185.27 5.79004 185.962 7.08497C186.667 8.37406 186.346 9.48974 185.788 9.80739C185.223 10.1644 184.475 10.0046 183.719 9.63777C183.092 9.33228 182.437 8.87697 181.76 8.32357C181.592 8.18086 181.431 8.04397 181.311 7.94299C181.189 7.84127 181.104 7.77935 181.005 7.75241C180.907 7.72547 180.801 7.73505 180.644 7.76058C180.49 7.78686 180.282 7.82257 180.065 7.85983C180.065 7.85983 180.065 7.85983 180.065 7.85983C179.184 8.05048 178.366 8.33698 177.633 8.78384C176.037 9.76101 173.863 12.3143 176.507 16.5825C179.67 20.6631 184.051 20.4683 186.409 19.6652C186.42 19.6613 186.432 19.6574 186.443 19.6534C188.626 18.8875 190.388 17.5971 191.791 15.829C193.036 13.9936 194.835 11.8474 193.85 6.85201C193.835 6.79349 193.819 6.73487 193.802 6.67617C192.176 1.84417 188.872 0.916522 187.275 0.397366C185.465 -0.0747108 184.066 -0.0471411 182.686 0.0797124C182.66 0.0823421 182.634 0.0850782 182.609 0.0879192C181.378 0.229193 180.293 0.580535 179.156 1.04434C178.582 1.28247 178.005 1.53994 177.285 1.91563C176.922 2.10893 176.523 2.3257 176.002 2.67979C175.484 3.08053 174.801 3.40734 173.784 4.97039C173.67 5.16061 173.558 5.36845 173.452 5.59574C172.468 7.36833 172.945 10.3761 173.675 11.4053C174.362 12.5901 174.899 13.0071 175.297 13.3709C176.097 14.0373 176.549 14.2704 176.965 14.5148C177.497 14.8138 177.901 15.0106 178.245 15.1834Z" fill="#25C5C5"/>
<path d="M180.912 9.8483C179.753 9.26862 178.594 8.68894 178.866 8.10048C179.138 7.51202 180.877 6.93234 182.643 6.92356C184.408 6.91478 186.147 7.49445 186.463 8.66259C186.779 9.83073 185.62 11.5698 183.863 12.1758C182.107 12.7818 179.788 12.2021 180.912 8.0917" stroke="#25C5C5" stroke-width="12" stroke-linecap="round"/>
<path d="M145.78 250.705C147.232 250.705 148.624 250.128 149.65 249.102C150.676 248.076 151.253 246.684 151.253 245.232C151.253 243.781 150.676 242.389 149.65 241.363C148.624 240.336 147.232 239.76 145.78 239.76C145.621 239.764 145.644 239.741 146.051 239.792C146.41 239.849 147.499 240.019 148.605 241.055C149.372 241.776 149.77 242.666 149.919 243.209C150.074 243.769 150.079 244.093 150.085 244.308C150.085 244.319 150.085 244.329 150.085 244.34C150.068 244.898 150.082 244.823 150.166 244.854C150.247 244.856 150.373 244.824 150.505 244.822C150.768 244.81 151.061 244.925 151.045 245.188C151.045 245.19 151.045 245.191 151.045 245.193C150.998 245.452 151.058 245.638 150.811 245.922C150.668 246.06 150.478 246.24 149.824 246.395C149.486 246.463 149.021 246.541 148.215 246.442C147.435 246.336 146.106 246.006 144.775 244.803C144.771 244.799 144.766 244.795 144.762 244.791C142.228 242.215 142.591 240.165 142.591 239.279C142.691 238.292 142.907 237.763 143.143 237.27C143.615 236.336 144.366 235.576 145.451 235.116C145.47 235.108 145.488 235.1 145.507 235.093C146.297 234.786 146.704 234.791 146.854 234.778C147.006 234.775 146.939 234.783 146.785 234.762C146.463 234.724 145.811 234.591 145.063 234.407C144.778 234.338 144.473 234.262 144.151 234.182C142.152 233.682 140.037 233.997 138.27 235.057C136.503 236.117 135.229 237.836 134.73 239.835C134.23 241.834 134.545 243.95 135.605 245.717C136.665 247.483 138.384 248.757 140.383 249.257C140.383 249.257 140.383 249.257 140.383 249.257C140.704 249.337 141.043 249.422 141.402 249.509C142.357 249.736 143.416 249.993 144.833 250.178C146.264 250.292 148.056 250.691 151.301 249.511C151.339 249.496 151.377 249.48 151.415 249.464C153.634 248.535 155.343 246.912 156.427 244.915C156.968 243.891 157.408 242.778 157.587 241.183C157.662 239.701 157.956 236.967 154.967 233.957C154.962 233.953 154.956 233.948 154.951 233.943C151.526 231.154 149.264 231.853 148.023 231.943C146.711 232.182 145.886 232.569 145.138 232.97C143.68 233.79 142.635 234.745 141.658 235.944C141.652 235.952 141.646 235.959 141.64 235.966C140.637 237.238 140.149 238.55 139.813 239.812C139.498 241.172 139.24 242.032 139.139 244.35C139.139 244.372 139.14 244.395 139.14 244.418C139.192 245.221 139.124 247.022 141.061 248.985C142.409 250.253 143.832 250.526 144.517 250.629C145.252 250.726 145.608 250.7 145.78 250.705Z" fill="#25C5C5"/>
<path d="M145.78 245.232C145.201 245.232 144.621 245.232 144.612 244.363C144.603 243.493 145.183 241.754 146.351 240.569C147.519 239.383 149.258 238.803 149.864 239.374C150.47 239.945 149.891 241.684 148.433 242.29C146.975 242.896 144.656 242.316 142.267 241.719" stroke="#25C5C5" stroke-width="12" stroke-linecap="round"/>
<path d="M0 52.0065C0 54.3313 0.923519 56.5609 2.56739 58.2048C4.21127 59.8486 6.44084 60.7722 8.76562 60.7722C11.0904 60.7722 13.32 59.8486 14.9639 58.2048C16.6077 56.5609 17.5312 54.3313 17.5312 52.0065C17.5107 53.5985 17.1285 54.4654 16.8722 55.043C16.3452 56.1032 16.0308 56.3297 15.8513 56.5268C15.6702 56.6985 15.6047 56.7332 15.5891 56.7449C15.5643 56.7575 15.7342 56.6626 15.9631 56.595C15.9666 56.5939 15.9701 56.593 15.9737 56.5922L11.4675 56.7472C7.73727 55.8029 6.30325 53.4355 5.55355 52.2222C4.79891 50.8673 4.4927 49.5189 4.99675 48.0937C5.01044 48.0565 5.02501 48.0194 5.04046 47.9825C5.57799 46.8063 6.43365 46.4466 8.35675 46.2271C9.3647 46.2264 10.7504 45.653 13.9202 46.7481C15.4721 47.3479 16.6651 48.8373 16.7806 49.8059C16.9519 50.8015 16.5564 51.3527 16.1146 51.6698C15.311 52.2019 14.2542 52.1633 13.1576 51.9932C12.9295 51.9477 12.7337 51.9037 12.5962 51.8712C12.456 51.8387 12.3672 51.8206 12.276 51.822C12.1848 51.8234 12.0967 51.8442 11.9575 51.8809C11.821 51.9176 11.6267 51.9675 11.4 52.0198C11.4 52.0198 11.4 52.0198 11.4 52.0198C10.3119 52.3371 9.2958 52.7833 8.6212 53.7805C8.25631 54.3685 7.96861 55.1823 8.31089 56.3988C8.59487 57.5885 10.0358 59.2432 11.8657 59.8833C15.5996 61.0555 17.5165 60.1797 18.9606 59.8449C21.7572 58.928 23.2607 57.6098 24.2073 55.3982C24.2359 55.3273 24.2633 55.2562 24.2895 55.1849C25.2599 52.4873 25.0255 49.7197 23.9065 47.0573C22.8048 44.5586 20.4808 40.9105 15.3913 39.6598L12.9177 39.1489L10.8851 39.8148C10.862 39.8221 10.8389 39.8293 10.8157 39.8364C9.27541 40.3135 7.73718 40.9634 6.14998 41.9717C4.56746 43.1 2.89956 43.9842 1.01155 47.5741C0.549359 48.5902 0.021574 49.9306 0 52.0065Z" fill="#25C5C5"/>
<path d="M8.76562 52.0065C8.76562 50.8472 10.5047 49.0906 13.4294 48.2035C14.6151 48.4758 15.1948 50.2148 14.6239 51.6903C14.053 53.1659 12.314 54.3252 12.2788 52.0065" stroke="#25C5C5" stroke-width="12" stroke-linecap="round"/>
<path d="M50.1597 62.5463C50.1597 63.6807 50.6103 64.7687 51.4125 65.5708C52.2146 66.373 53.3026 66.8236 54.437 66.8236C55.5714 66.8236 56.6594 66.373 57.4616 65.5708C58.2637 64.7687 58.7144 63.6807 58.7144 62.5463C58.7144 62.517 58.7144 62.4877 58.7144 62.4584C58.7144 61.9315 58.7144 61.4045 58.7144 60.8775C58.7144 60.8482 58.7144 60.8189 58.7144 60.7897C58.7144 59.6553 58.2637 58.5673 57.4616 57.7651C56.6594 56.963 55.5714 56.5123 54.437 56.5123C53.3026 56.5123 52.2146 56.963 51.4125 57.7651C50.6103 58.5673 50.1597 59.6553 50.1597 60.7897C50.1597 60.8189 50.1597 60.8482 50.1597 60.8775C50.1597 61.4045 50.1597 61.9315 50.1597 62.4584C50.1597 62.4877 50.1597 62.517 50.1597 62.5463Z" fill="#25C5C5"/>
<path d="M54.437 62.5463V60.7897" stroke="#25C5C5" stroke-width="12" stroke-linecap="round"/>
<path d="M100.058 181.761C100.216 180.697 99.9438 179.614 99.3028 178.751C98.6617 177.887 97.704 177.314 96.6401 177.157C95.5763 176.999 94.4936 177.271 93.6302 177.912C92.7668 178.553 92.1934 179.511 92.0361 180.575C92.0361 180.575 92.0361 180.575 92.0361 180.575C91.7099 187.762 92.6586 192.48 93.2408 198.248C93.7221 202.246 94.2495 206.234 94.8287 210.217C94.8295 210.222 94.8302 210.227 94.831 210.233C96.5328 221.968 97.3947 234.283 98.9366 246.608C98.9376 246.616 98.9386 246.624 98.9396 246.633C100.63 260.696 101.393 274.933 102.551 289.215C102.551 289.219 102.552 289.223 102.552 289.227C103.422 300.428 105.292 311.823 103.747 322.879C103.746 322.884 103.745 322.889 103.745 322.894C102.402 331.459 100.464 339.932 98.638 348.425C98.6377 348.427 98.6373 348.428 98.6369 348.43C96.8139 356.865 95.3473 365.431 94.716 374.045C94.7159 374.047 94.7158 374.048 94.7157 374.049C93.4179 391.984 93.3223 409.96 92.4356 427.765C92.4352 427.772 92.4349 427.778 92.4345 427.785C91.6668 440.173 90.3744 452.797 91.842 465.483C91.8427 465.488 91.8433 465.493 91.8439 465.498C93.127 475.224 94.2988 484.972 95.943 494.614L95.9551 494.677C95.9554 494.678 95.9557 494.68 95.956 494.681C96.0727 495.235 96.1843 495.791 96.2908 496.347C97.0049 500.082 97.4993 503.871 97.7795 507.677L97.7914 507.792C97.7914 507.792 97.7914 507.792 97.7914 507.792C98.0536 509.62 98.8192 511.28 99.4596 512.824C99.5761 513.106 99.8091 513.337 100.096 513.468C100.383 513.6 100.701 513.621 100.99 513.525C101.28 513.428 101.521 513.22 101.672 512.943C101.822 512.666 101.87 512.342 101.794 512.046C101.366 510.412 101.105 508.857 100.913 507.354C100.913 507.354 100.913 507.354 100.913 507.354L100.925 507.469C100.691 503.541 100.248 499.619 99.5227 495.735C99.4144 495.157 99.2997 494.579 99.1782 494.002C99.1779 494.001 99.1775 493.999 99.1772 493.998L99.1893 494.061C97.5443 484.417 95.4091 474.871 94.1327 465.196C94.1321 465.191 94.1314 465.186 94.1308 465.182C92.7136 452.951 94.9223 440.54 96.103 428.063C96.1036 428.056 96.1042 428.05 96.1048 428.043C97.5661 410.1 98.6397 392.226 99.9281 374.434C99.9282 374.433 99.9283 374.432 99.9283 374.43C100.548 365.987 101.203 357.553 102.63 349.198C102.63 349.196 102.631 349.194 102.631 349.193C104.089 340.608 105.329 331.972 106.679 323.353C106.68 323.348 106.681 323.343 106.682 323.339C108.293 311.817 108.984 300.286 108.367 288.808C108.367 288.804 108.366 288.8 108.366 288.795C107.542 274.588 106.772 260.264 105.358 245.925C105.357 245.916 105.356 245.908 105.355 245.899C104.1 233.864 104.656 221.604 102.855 209.062C102.855 209.056 102.854 209.051 102.853 209.045C102.286 205.148 101.764 201.205 101.292 197.282C100.688 192.027 99.9032 185.655 100.058 181.761Z" fill="#25C5C5"/>
<path d="M112.812 551.349C113.01 550.951 113.043 550.491 112.902 550.07C112.762 549.648 112.46 549.299 112.062 549.101C111.665 548.902 111.204 548.869 110.783 549.01C110.361 549.15 110.013 549.453 109.814 549.85C109.814 549.85 109.814 549.85 109.814 549.85C109.788 549.901 109.763 549.952 109.738 550.003C109.28 550.919 108.822 551.835 108.364 552.751C108.338 552.801 108.313 552.852 108.287 552.903C108.089 553.301 108.056 553.761 108.196 554.183C108.337 554.604 108.639 554.953 109.037 555.152C109.434 555.35 109.894 555.383 110.316 555.242C110.738 555.102 111.086 554.8 111.285 554.402C111.285 554.402 111.285 554.402 111.285 554.402C111.31 554.351 111.336 554.3 111.361 554.249C111.819 553.333 112.277 552.418 112.735 551.502C112.761 551.451 112.786 551.4 112.812 551.349Z" fill="#25C5C5"/>
<path d="M111.313 550.599L109.786 553.653" stroke="#25C5C5" stroke-width="12" stroke-linecap="round"/>
</svg>
